<svg width="766" height="533" viewBox="0 0 766 533" fill="none" xmlns="http://www.w3.org/2000/svg">
<g opacity="0.1" clip-path="url(#clip0)">
<path d="M242.809 135.08C277.38 129.719 313.554 132.644 347.486 123.893C393.26 112.375 429.899 81.75 469.058 57.219C508.602 33.0803 558.37 14.3016 602.769 30.3209C661.839 51.5491 679.391 120.319 688.204 178.208C697.637 239.858 707.069 301.507 716.483 363.529C721.71 396.245 725.984 431.897 707.609 460.45C684.415 496.597 634.25 507.149 589.232 511.616C410.33 530.289 -58.0045 526.305 88.9649 241.924C117.571 186.276 176.926 145.221 242.809 135.08Z" fill="url(#paint0_linear)"/>
</g>
<g opacity="0.1" clip-path="url(#clip1)">
<path d="M214.395 146.89C248.438 138.83 284.73 138.907 317.871 127.519C362.599 112.444 396.721 79.0365 433.834 51.5071C471.36 24.3386 519.5 1.71084 565.02 14.1951C625.575 30.7206 648.471 97.9005 661.801 154.918C676.044 215.638 690.288 276.357 704.541 337.448C712.321 369.653 719.38 404.859 703.303 434.767C683.019 472.622 633.837 487.08 589.309 495.067C412.425 527.727 -54.7773 560.522 69.4133 265.481C93.5626 207.759 149.512 162.171 214.395 146.89Z" fill="url(#paint1_linear)"/>
</g>
<path fill-rule="evenodd" clip-rule="evenodd" d="M521 160.497C521 160.497 543.74 125.881 579.639 128.157C607.281 129.934 650.333 145.27 652.2 188.906C654.586 238.615 630.195 224.219 635.106 247.364C640.026 270.867 660.487 272.118 658.046 288.295C655.606 304.473 634.156 320.077 635.137 330.077C636.117 340.077 651.433 363.664 640.972 374.682C628.428 388.262 614.074 387.566 615.413 397.556C618.081 417.18 635.366 420.305 631.492 422.914C627.619 425.522 569.63 428.126 559.328 404.406C551.693 386.704 565.914 368.784 567.431 358.36C570.456 337.154 546.272 317.024 530.863 303.465C515.444 289.549 523.68 262.118 523.312 248.163C523.302 234.199 486.404 221.207 521 160.497Z" fill="#1D3542"/>
<path d="M578.084 137.15C596.292 134.521 636.385 146.355 638.959 189.613C641.477 230.725 613.872 230.379 618.783 253.524C623.703 277.027 644.55 279.342 642.119 295.877C639.679 312.054 620.924 321.143 621.905 331.143C622.885 341.143 638.408 358.995 627.957 370.371C615.413 383.95 600.334 382.916 615.537 415.815" stroke="#01080A" stroke-miterlimit="10" stroke-linecap="round" stroke-linejoin="round"/>
<path d="M651.06 186.43C655.774 229.274 640.167 221.808 645.125 246.742C649.725 271.686 669.13 273.681 666.369 291.299C663.957 308.55 641.018 322.045 642.017 332.761C643.017 343.477 655.74 363.909 640.982 375.041" stroke="#01080A" stroke-miterlimit="10" stroke-linecap="round" stroke-linejoin="round"/>
<path d="M570.78 145.578C588.988 142.95 587.255 158.75 629.61 188.428C632.127 229.539 599.16 229.692 604.439 253.186C609.359 276.689 630.206 279.004 627.775 295.539C625.335 311.716 606.58 320.805 607.56 330.805C608.541 340.805 624.064 358.657 613.612 370.033C601.069 383.612 585.989 382.578 601.192 415.477" stroke="#01080A" stroke-miterlimit="10" stroke-linecap="round" stroke-linejoin="round"/>
<path d="M600.544 187.045C605.21 228.1 572.281 229.685 578.625 252.792C584.61 275.909 605.796 277.499 604.072 293.657C602.706 309.806 584.338 319.959 585.677 329.949C587.373 339.931 603.593 357.048 593.51 368.772C581.701 383.049 573.398 380.761 590.373 412.898" stroke="#01080A" stroke-miterlimit="10" stroke-linecap="round" stroke-linejoin="round"/>
<path d="M567.54 185.768C576.127 226.004 544.008 231.148 552.481 253.483C560.955 275.818 582.084 275.26 582.16 291.73C582.236 308.199 564.98 319.754 567.752 329.707C570.523 339.66 588.486 354.941 579.863 367.701C569.516 383.013 560.883 381.808 581.382 411.704" stroke="#01080A" stroke-miterlimit="10" stroke-linecap="round" stroke-linejoin="round"/>
<path d="M103.795 471.204C103.795 471.204 78.0284 486.206 76.6053 486.602C70.2439 489.992 50.1039 500.907 28.2017 512.943C19.6725 515.674 10.0501 517.718 11.2283 521.626C12.3971 525.176 46.5329 528.573 55.6367 520.455C59.4913 517.131 65.1176 513.044 69.8394 515.426C74.5612 517.808 86.7377 517.487 91.2518 511.997C95.4173 506.874 91.7228 502.674 94.4463 497.231C94.795 496.864 119.459 480.817 119.807 480.45C124.293 473.886 105.538 469.368 103.795 471.204Z" fill="#F4A082"/>
<path d="M359.387 432.953C359.387 432.953 352.498 429.912 349.039 434.658C340.887 438.096 340.162 451.364 340.162 451.364C340.162 451.364 333.348 451.185 329.182 456.308C327.787 457.777 322.368 456.13 323.546 460.038C324.319 462.166 356.033 468.849 358.983 471.994C361.556 474.432 359.123 436.541 359.387 432.953Z" fill="#F4A082"/>
<path d="M339.807 247.633C334.812 248.481 327.027 252.267 322.108 255.977C266.042 277.149 222.758 361.721 198.801 390.998C194.985 395.754 186.22 403.147 182.064 408.627C172.008 421.425 131.993 453.274 98.8283 473.126C98.1215 473.503 104.549 486.224 109.592 487.165C138.713 477.088 194.61 463.081 222.91 421.873C232.24 408.736 285.083 374.042 315.938 348.164C321.951 345.141 338.698 355.083 338.227 364.405C344.034 394.33 351.275 492.25 361.237 503.088C371.199 513.925 378.032 514.819 383.291 510.384C398.907 504.601 411.288 403.299 403.709 346.924C406.328 337.545 412.954 330.567 412.473 325.924C412.473 325.924 338.158 253.047 339.807 247.633Z" fill="#1F5148"/>
<path d="M330.954 250.725C330.954 250.725 359.932 315.04 409.986 333.069" stroke="#1D4941" stroke-width="1.5" stroke-miterlimit="10"/>
<path d="M326.325 253.192C326.325 253.192 351.362 323.767 408.019 336.345" stroke="#1D4941" stroke-width="1.5" stroke-miterlimit="10"/>
<path d="M546.523 190.619C539.059 192.964 515.008 205.056 514.188 201.139C513.792 199.717 514.715 193.964 514.31 192.184C510.747 179.388 536.72 145.044 526.721 146.382C515.298 148.116 431.553 193.292 425.182 196.325C421.648 198.208 395.297 218.239 373.094 232.431C363.226 238.779 348.666 243.817 338.035 248.395C358.497 290.465 410.06 329.568 412.472 325.923C419.691 314.275 438.031 289.442 461.639 287.746C465.239 288.367 492.448 287.291 498.819 284.259C505.19 281.226 542.238 299.943 541.71 279.905C541.181 259.867 523.001 236.356 527.223 233.38C531.445 230.404 542.764 224.734 554.374 216.551C565.646 209.092 553.987 188.273 546.523 190.619Z" fill="#F4A082"/>
<path opacity="0.6" d="M549.388 217.756C544.082 220.403 532.49 215.696 528.343 207.927C524.196 200.159 527.583 198.049 532.813 196.152C538.119 193.506 542.922 189.997 547.069 197.766C551.226 205.892 554.694 215.11 549.388 217.756Z" fill="#DB8C70"/>
<path d="M432.468 214.394C420.762 205.393 460.09 174.636 488.4 147.392C503.781 132.664 544.824 112.604 580.128 105.944C592.945 102.741 648.456 87.6708 706.276 105.84C706.276 105.84 707.162 112.262 700.668 110.643C694.184 109.381 606.244 117.788 585.331 126.575C574.333 130.803 540.546 140.646 523.017 155.431C505.488 170.216 491.164 211.414 463.681 202.113C435.473 192.472 428.933 216.278 432.468 214.394Z" fill="#F4A082"/>
<path d="M687.917 102.744C699.254 97.7899 710.95 92.8266 716.699 93.3911C724.955 93.8895 733.248 95.8193 739.092 99.962C744.926 103.747 756.575 110.601 755.528 111.703C754.482 112.805 724.767 113.946 724.767 113.946C724.767 113.946 714.711 113.137 716.926 115.585C719.141 118.034 730.554 115.942 730.705 121.667C730.705 121.667 721.384 121.555 717.793 121.292C714.202 121.028 692.281 118.742 684.486 108.563C684.844 108.554 683.666 104.646 687.917 102.744Z" fill="#F4A082"/>
<path d="M536.68 388.175C539.697 393.824 558.509 441.309 561.885 487.769C567.973 487.609 572.384 491.79 578.482 491.987C565.833 474.417 578.253 428.972 557.584 379.03C548.404 357.071 547.045 291.938 545.772 284.452C542.907 270.921 542.906 257.315 530.531 250.122C518.157 242.928 485.379 263.845 486.887 280.276C486.887 280.276 512.852 272.788 511.787 286.781C511.872 290.001 533.664 382.525 536.68 388.175Z" fill="#F4A082"/>
<path d="M600.903 499.632C600.903 499.632 583.986 496.856 581.074 495.142C578.152 493.071 572.403 478.899 572.346 476.753L563.364 475.915C556.824 486.114 560.622 494.249 556.099 499.381C554.007 501.585 549.455 505.644 551.632 506.661C554.893 508.007 557.739 507.216 560.529 504.277C563.318 501.339 567.521 497.648 569.397 500.821C570.914 504.004 573.139 506.81 577.455 507.412C581.772 508.014 615.436 507.126 615.021 504.989C614.248 502.861 600.903 499.632 600.903 499.632Z" fill="#F4A082"/>
<path d="M562.6 161.549C562.6 161.549 565.258 153.601 558.529 156.643C544.364 163.104 546.767 172.709 546.796 173.782C546.834 175.213 562.6 161.549 562.6 161.549Z" fill="#F4A082"/>
<path d="M591.31 217.368C591.31 217.368 599.255 219.665 592.903 223.413C579.492 231.286 573.215 224.29 572.112 223.245C571.377 222.548 591.31 217.368 591.31 217.368Z" fill="#F4A082"/>
<path fill-rule="evenodd" clip-rule="evenodd" d="M576.398 154.741C571.431 156.662 565.041 158.979 559.396 162.351C531.123 177.419 532.386 198.154 539.578 212.645C548.701 232.456 580.481 228.038 594.909 217.989C604.06 211.661 607.906 207.979 612.401 201.773C622.277 182.177 611.779 191.763 576.398 154.741Z" fill="#F4A082"/>
<path d="M378.032 229.437C396.382 232.176 435.476 274.114 431.924 302.495C431.924 302.495 457.719 288.566 459.877 288.867C461.309 288.829 462.751 289.15 463.826 289.121C490.507 295.221 504.577 285.182 509.026 277.187C513.474 269.192 524.689 259.587 529.589 255.161C534.499 251.092 535.112 247.138 535.112 247.138L531.483 245.443C531.483 245.443 510.901 266.754 506.914 265.068C502.937 263.741 474.521 246.229 471.185 242.02C468.207 237.802 477.941 199.231 484.689 196.905C491.437 194.579 510.39 193.005 515.451 194.662C516.902 195.339 516.76 189.972 515.328 190.01C513.528 189.699 482.333 189.09 461.806 185.334C455.68 184.063 458.837 181.474 448.093 181.757C436.661 183.133 378.013 228.722 378.032 229.437Z" fill="#FFD2B9"/>
<path d="M585.465 186.011C579.151 191.191 571.338 193.903 569.547 193.95C567.031 193.659 566.927 189.722 565.523 190.834C562.008 193.433 564.289 198.386 566.833 199.751" stroke="#EFAFA3" stroke-width="1.38" stroke-miterlimit="10" stroke-linecap="round" stroke-linejoin="round"/>
<path opacity="0.69" d="M576.634 163.686C578.462 165.07 581.431 168.931 581.893 172.857" stroke="#682C1A" stroke-width="1.31" stroke-miterlimit="10" stroke-linecap="round" stroke-linejoin="round"/>
<path d="M571.668 179.213C568.435 178.94 565.07 173.658 566.408 170.042" stroke="#49241B" stroke-miterlimit="10" stroke-linecap="round" stroke-linejoin="round"/>
<path d="M587.539 210.305C584.307 210.033 580.942 204.75 582.28 201.134" stroke="#49241B" stroke-miterlimit="10" stroke-linecap="round" stroke-linejoin="round"/>
<path opacity="0.69" d="M597.416 204.315C597.35 201.811 595.437 197.206 592.854 194.41" stroke="#682C1A" stroke-width="1.31" stroke-miterlimit="10" stroke-linecap="round" stroke-linejoin="round"/>
<path d="M555.542 192.888C554.506 194.348 554.751 203.651 562.696 205.948" stroke="#BC4926" stroke-width="1.45" stroke-miterlimit="10" stroke-linecap="round" stroke-linejoin="round"/>
<path opacity="0.24" fill-rule="evenodd" clip-rule="evenodd" d="M559.991 184.892C556.768 184.977 553.799 181.117 553.327 176.832C552.847 172.19 555.269 168.903 558.492 168.818C561.715 168.733 564.684 172.594 565.155 176.878C565.268 181.172 563.214 184.807 559.991 184.892Z" fill="#ED5851"/>
<path opacity="0.24" fill-rule="evenodd" clip-rule="evenodd" d="M571.725 208.574C570.368 211.474 571.913 215.73 575.57 218.499C579.218 220.909 583.515 220.795 584.872 217.895C586.229 214.995 584.683 210.739 581.027 207.971C577.379 205.56 573.082 205.674 571.725 208.574Z" fill="#ED5851"/>
<path opacity="0.6" d="M375.244 286.801C373.84 287.912 372.049 287.959 371.314 287.262C370.579 286.565 371.606 284.748 373.01 283.637C374.414 282.526 376.205 282.478 376.94 283.175C377.675 283.872 377.006 285.68 375.244 286.801Z" fill="#DB8C70"/>
<path d="M587.924 143.336C598.328 143.778 621.975 157.119 630.439 179.096" stroke="#01080A" stroke-miterlimit="10" stroke-linecap="round" stroke-linejoin="round"/>
<path opacity="0.56" d="M606.824 512.499C606.871 514.401 483.705 519.09 331.606 522.908C179.509 526.726 56.2656 528.297 56.2159 526.319C56.1682 524.417 179.334 519.728 331.431 515.91C483.53 512.092 606.776 510.597 606.824 512.499Z" fill="black" fill-opacity="0.2"/>
<path opacity="0.5" d="M91.0359 82.7122C91.0426 83.4231 91.0086 84.1506 91.0152 84.8614C91.0018 86.9124 91.0865 88.9707 91.1712 91.029C91.2559 93.0873 91.4387 95.1528 91.7029 97.1849C91.9504 99.1763 92.296 101.175 92.5842 103.15C93.0869 106.225 93.4509 109.311 94.0351 112.353C94.2163 113.372 94.3807 114.351 94.5858 115.314C94.7553 115.958 95.0636 116.592 95.3144 117.203C95.3981 117.406 95.5464 117.535 95.6946 117.665C95.9004 117.818 96.2594 117.766 96.3553 117.536C96.4105 117.323 96.5231 117.134 96.5209 116.897C96.5259 116.562 96.4902 116.244 96.4546 115.925C95.9401 112.474 95.4663 109.006 94.9518 105.554C94.5923 102.943 94.3716 100.322 94.3304 97.675C94.292 94.456 94.311 91.261 94.4856 88.0972C94.5558 86.8791 94.5687 85.637 94.5983 84.4356C94.683 83.0212 94.7104 81.5828 94.7952 80.1685C94.9 77.4139 95.316 74.7217 95.7894 72.0535C95.8518 71.7425 95.9143 71.4314 95.8953 71.1537C95.9606 70.2707 95.3485 69.4757 94.5061 69.3937C93.647 69.271 92.9239 69.7109 92.605 70.5555C92.4684 70.8019 92.4466 71.0962 92.3842 71.4073C92.0335 73.2164 91.4698 74.9703 90.7913 76.6762C90.192 78.1117 89.6166 79.4899 89.0005 80.8847C88.8806 81.1718 88.7201 81.4757 88.5595 81.7795C87.5961 83.6025 86.805 85.4974 86.0713 87.4163C85.8243 88.0886 85.6921 88.8089 85.6581 89.5365C85.5951 90.6565 85.8264 91.7982 86.3833 92.8062C86.5004 93.0911 86.6821 93.3018 86.9453 93.4791C87.0936 93.6085 87.3712 93.5895 87.5173 93.4819C87.6633 93.3743 87.752 93.2428 87.7258 93.0632C87.7068 92.7856 87.6305 92.484 87.5708 92.2231C87.3228 91.0406 87.3116 89.8559 87.7097 88.741C88.0766 87.7815 88.4602 86.8628 88.9419 85.9513C89.5027 84.7694 90.1377 83.6522 90.756 82.4943C90.78 82.4368 90.8614 82.4034 90.9428 82.3699C90.993 82.492 91.0432 82.6141 91.0359 82.7122ZM144.113 97.3877C144.479 97.2372 144.805 97.1034 145.171 96.9528C146.945 96.1763 148.786 95.5625 150.402 94.5178C150.443 94.5011 150.483 94.4844 150.524 94.4676C151.881 93.7195 153.141 92.9641 154.283 91.9239C154.769 91.4862 155.296 91.0319 155.766 90.5536C156 90.3144 156.235 90.0752 156.412 89.8121C156.606 89.5897 156.686 89.3193 156.731 88.9675C156.813 88.1251 155.911 87.7822 155.358 88.0571C155.155 88.1407 155.009 88.2483 154.822 88.3726C154.197 88.8197 153.572 89.2668 152.971 89.6565C152.207 90.1131 151.393 90.4475 150.68 91.0262C150.153 91.4806 149.552 91.8702 148.984 92.3413C147.452 93.5895 145.761 94.5696 143.98 95.4442C142.589 96.111 141.248 96.8998 139.783 97.5019C139.661 97.552 139.58 97.5855 139.474 97.6763C139.003 97.9177 138.572 98.1424 138.141 98.3671C137.791 98.5583 137.442 98.7495 137.133 98.924C136.742 99.1319 136.393 99.3231 136.003 99.5311C135.735 99.6888 135.409 99.8226 135.141 99.9804C134.133 100.537 133.166 101.077 132.174 101.675C130.939 102.373 129.72 103.112 128.642 104.078C128.513 104.226 128.326 104.35 128.14 104.475C128.14 104.475 128.058 104.508 128.041 104.468C127.984 104.444 127.91 104.379 127.893 104.338C127.905 103.905 127.958 103.455 127.987 103.063C128.048 101.706 128.207 100.356 128.227 99.0157C128.284 97.1849 128.323 95.3134 128.241 93.4921C128.149 91.5319 128.074 89.6124 127.958 87.7097C127.583 83.4398 127.208 79.1699 127.151 74.8643C127.124 72.0211 127.138 69.1611 127.43 66.2822C127.49 65.7342 127.533 65.1455 127.618 64.54C127.623 64.205 127.685 63.8939 127.649 63.5756C127.664 63.3793 127.597 63.2165 127.53 63.0537C127.454 62.7521 127.052 62.5843 126.709 62.6774C126.465 62.7778 126.238 62.9188 126.142 63.1485C125.981 63.4523 125.862 63.7394 125.758 64.0672C125.259 65.747 124.957 67.4412 124.809 69.1667C124.576 71.2606 124.481 73.3451 124.484 75.4368C124.462 79.2038 124.522 82.9374 124.72 86.6615C124.806 87.9109 124.85 89.1769 124.895 90.443C124.96 92.2237 125.002 94.0617 125.027 95.8591C125.111 98.7263 125.172 101.651 125.272 104.559C125.274 105.605 125.316 106.634 125.375 107.704C125.354 107.998 125.373 108.276 125.49 108.561C125.583 108.903 125.863 109.121 126.214 109.167C126.526 109.229 126.81 109.112 126.971 108.808C127.108 108.562 127.227 108.275 127.307 108.004C127.695 106.75 128.38 105.755 129.353 104.88C129.604 104.682 129.839 104.442 130.131 104.227C131.714 103.101 133.363 102.138 135.121 101.321C135.894 101.003 136.667 100.685 137.424 100.327C137.749 100.193 138.092 100.1 138.343 99.9013C138.985 99.4949 139.677 99.2106 140.368 98.9263C141.63 98.4078 142.892 97.8894 144.113 97.3877ZM140.394 92.8269C140.97 94.1125 141.838 95.183 142.957 96.0549C143.608 96.5963 144.337 96.8672 145.163 96.9085C145.833 96.9185 146.527 96.8712 147.128 96.4815C147.672 96.0678 148.239 95.5968 148.675 95.037C149.418 94.0659 150.029 93.0061 150.525 91.8984C151.086 90.7165 151.434 89.4794 151.822 88.2256C152.432 86.12 152.886 83.9831 153.184 81.815C153.352 80.6041 153.521 79.3932 153.591 78.1751C153.654 77.0551 153.66 75.9111 153.625 74.7838C153.476 71.1818 152.945 67.6896 151.435 64.3619C151.402 64.2805 151.351 64.1584 151.301 64.0363C150.733 62.6526 149.896 61.4266 148.954 60.2915C148.102 59.2618 147.016 58.4713 145.665 58.0754C144.394 57.6461 143.128 57.6907 141.916 58.3312C141.095 58.7638 140.382 59.3425 139.809 60.1486C138.688 61.7034 138.222 63.4646 138.183 65.3361C138.102 67.2243 138.439 69.0841 139.036 70.8843C139.162 71.308 139.231 71.7078 139.121 72.1337C139.066 72.3466 139.051 72.5429 138.996 72.7558C138.504 75.1464 138.208 77.5514 138.026 80.0044C137.927 81.615 137.983 83.2569 138.138 84.9059C138.395 87.0361 138.733 89.1329 139.691 91.1176C139.925 91.6874 140.16 92.2572 140.394 92.8269ZM141.006 65.8407L141.054 65.7258C140.632 64.2345 140.913 62.8346 141.603 61.5045C142.14 60.38 143.131 59.7824 144.29 59.5918C145.106 59.4942 145.884 59.6503 146.558 60.1343C147.29 60.6422 147.957 61.2242 148.495 61.9545C149.215 62.8956 149.853 63.8701 150.264 64.9857C150.298 65.0671 150.331 65.1485 150.365 65.2299C151.54 67.7437 152.113 70.4102 152.326 73.1291C152.528 75.4723 152.534 77.801 152.221 80.1653C152.016 81.8668 151.771 83.585 151.37 85.272C150.978 87.0978 150.432 88.8923 149.672 90.6317C149.264 91.6079 148.742 92.5361 148.145 93.3997C147.838 93.8111 147.515 94.1818 147.118 94.4879C146.809 94.6624 146.5 94.8369 146.215 94.9539C145.71 95.1139 145.203 95.037 144.791 94.7303C144.042 94.1817 143.545 93.4347 143.17 92.6374C142.745 91.7181 142.384 90.7247 142.105 89.6977C141.656 88.0269 141.427 86.3131 141.297 84.6066C141.103 82.1653 141.202 79.7458 141.482 77.3001C141.496 77.1038 141.551 76.8909 141.607 76.6779C141.631 76.6205 141.655 76.5631 141.703 76.4482C141.825 76.398 141.915 76.5034 141.99 76.5681C142.346 77.0877 142.743 77.5906 143.099 78.1102C143.936 79.3361 144.83 80.586 145.854 81.6877C146.184 82.0278 146.514 82.3678 146.868 82.6505C147.033 82.8205 147.262 82.9164 147.492 83.0123C147.722 83.1082 147.999 83.0893 148.243 82.9889C148.65 82.8217 148.916 82.427 148.831 81.9866C148.687 81.5222 148.52 81.1152 148.231 80.7584C147.733 80.0113 147.212 79.3217 146.715 78.5746C145.754 77.1619 144.752 75.7659 143.896 74.2623C143.315 73.3118 142.979 72.2609 142.537 71.3009C142.42 71.016 142.441 70.7216 142.504 70.4105C142.624 69.3145 142.761 68.2592 142.882 67.1631C142.911 66.7706 142.906 66.2968 142.878 65.8803C142.831 65.1862 141.938 64.9822 141.533 65.3863C141.387 65.4939 141.2 65.6182 141.054 65.7258L141.006 65.8407ZM176.68 41.477C176.446 40.9073 176.195 40.2968 175.961 39.727C175.786 39.4182 175.693 39.0759 175.495 38.8244C175.354 38.597 175.155 38.3455 174.892 38.1682C174.686 38.0149 174.375 37.9525 174.066 38.127C173.782 38.244 173.678 38.5718 173.697 38.8495C173.7 39.0864 173.759 39.3473 173.86 39.5915C174.304 40.7885 174.561 42.1097 175.046 43.29C175.13 43.4935 175.173 43.7137 175.216 43.9339C175.292 44.2355 175.426 44.5611 175.502 44.8627C175.646 45.3271 175.731 45.7675 175.875 46.2319C176.161 47.1607 176.244 48.1731 176.425 49.1928C177.026 52.2758 177.228 55.4279 177.053 58.5917C176.872 61.0447 176.518 63.4257 175.968 65.7923C175.467 68.044 174.735 70.1999 173.93 72.291C173.107 74.3415 172.096 76.2793 171.068 78.1765C170.497 79.2195 169.87 80.2386 169.094 81.1284C168.876 81.4082 168.617 81.7048 168.342 81.9607C168.195 82.0683 168.009 82.1926 167.805 82.2762C167.496 82.4507 167.176 82.2494 167.14 81.9311C167.114 81.7516 167.112 81.5147 167.126 81.3184C167.23 79.3728 167.352 77.4678 167.456 75.5221C167.541 74.1078 167.568 72.6694 167.653 71.255C167.668 70.2499 167.724 69.228 167.698 68.2395C167.69 65.6739 167.682 63.1083 167.634 60.5594C167.607 57.7162 167.557 54.9304 167.252 52.1061C167.217 51.7877 167.164 51.4287 167.129 51.1104C167.059 50.7107 166.648 50.404 166.239 50.3343C165.846 50.3053 165.456 50.5133 165.312 50.8578C165.168 51.2023 165.049 51.4894 165.003 51.8412C164.887 52.6022 164.748 53.4206 164.69 54.2056C164.549 56.6418 164.45 59.0614 164.309 61.4976C164.302 61.5957 164.295 61.6939 164.271 61.7513C164.226 63.9579 164.157 66.2219 164.113 68.4284C164.051 70.5943 163.973 72.7195 163.993 74.8519C164.047 77.0658 164.158 79.3036 164.726 81.4962C164.929 82.2215 165.261 82.7985 165.732 83.3661C166.186 83.8929 166.883 84.0825 167.55 83.8556C168.039 83.6549 168.47 83.4303 168.817 83.0021C169.205 82.5572 169.675 82.0789 170.029 81.5526C170.642 80.7298 171.181 79.8423 171.761 78.938C172.43 77.9022 173.065 76.785 173.602 75.6605C174.268 74.3878 174.951 73.1557 175.502 71.835C176.054 70.5143 176.588 69.1529 177.042 67.825C177.519 66.4396 177.972 65.1116 178.311 63.7357C179.083 60.7543 179.643 57.7176 179.672 54.6614C179.671 52.8066 179.531 50.9613 179.154 49.1182C178.975 48.3354 178.82 47.4953 178.502 46.722C178.168 45.9081 177.833 45.0941 177.662 44.2133C177.626 43.8949 177.468 43.6268 177.368 43.3826C177.141 42.7147 176.849 42.121 176.598 41.5105C176.639 41.4938 176.639 41.4938 176.68 41.477ZM193.92 53.1354C192.468 54.3501 191.24 55.7589 190.267 57.4431C189.061 59.6033 188.495 61.9292 188.584 64.4614C188.662 65.8089 189.042 67.08 189.641 68.3081C190.49 69.9099 191.952 70.6887 193.675 70.599C194.745 70.5399 195.755 70.2199 196.665 69.6558C197.745 68.9266 198.808 68.1567 199.706 67.2168C200.183 66.6404 200.734 66.1286 201.193 65.5114C201.701 64.7795 202.226 64.0882 202.734 63.3562C203.685 61.9664 204.653 60.6172 205.587 59.1867C205.877 58.7346 206.093 58.2178 206.325 57.7417C206.397 57.5694 206.388 57.4306 206.362 57.2511C206.369 57.153 206.237 57.0643 206.163 56.9997C206.089 56.935 205.95 56.9445 205.926 57.0019C205.756 57.1669 205.546 57.3487 205.392 57.5544C204.618 58.6811 203.804 59.8245 203.03 60.9511C201.724 62.8672 200.213 64.63 198.536 66.2227C197.459 67.1889 196.314 67.9922 194.938 68.4627C194.392 68.6394 193.877 68.6606 193.313 68.5597C192.903 68.49 192.624 68.272 192.392 67.9391C192.227 67.7691 192.16 67.6063 192.076 67.4028C191.701 66.6056 191.448 65.7582 191.415 64.8679C191.296 63.5371 191.374 62.2209 191.82 60.991C192.496 59.0482 193.345 57.1772 194.571 55.5315C195.467 54.3547 196.43 53.3406 197.706 52.6259C197.828 52.5757 197.95 52.5256 198.056 52.4347C198.161 52.3438 198.233 52.1716 198.207 51.992C198.221 51.7958 198.023 51.5444 197.827 51.5299C197.59 51.5321 197.336 51.4936 197.099 51.4958C196.862 51.4981 196.601 51.5577 196.331 51.4785C195.594 51.3057 194.977 50.8457 194.594 50.1466C194.138 49.3829 193.803 48.5689 193.672 47.6713C193.47 46.1371 193.586 44.5672 193.955 43.0357C194.318 41.6024 194.819 40.1596 195.493 38.7887C196.19 37.3604 197.134 36.0687 198.449 35.1004C199.267 34.4309 200.163 34.0629 201.149 33.8004C202.111 33.5952 202.922 33.8328 203.559 34.5703C203.905 34.9511 204.211 35.3486 204.395 35.7963C204.912 36.821 205.184 37.946 205.357 39.0638C205.384 39.2433 205.427 39.4635 205.51 39.667C205.544 39.7484 205.675 39.8371 205.79 39.885C205.905 39.933 206.149 39.8326 206.197 39.7178C206.245 39.6029 206.334 39.4714 206.341 39.3733C206.411 38.9641 206.456 38.6123 206.445 38.2365C206.395 37.3055 206.247 36.3672 205.896 35.5126C205.502 34.4377 204.88 33.5039 203.991 32.7278C203.01 31.8464 201.814 31.4818 200.524 31.5838C199.372 31.6763 198.298 32.0704 197.29 32.6273C195.396 33.691 193.997 35.2648 192.919 37.0398C192.219 38.2312 191.658 39.4131 191.303 40.7483C190.655 43.1076 190.481 45.4624 190.977 47.8274C191.345 49.5316 192.255 50.8223 193.662 51.8141C193.884 52.0081 194.131 52.1447 194.394 52.322C194.468 52.3867 194.478 52.5255 194.528 52.6476C194.317 52.8293 194.147 52.9943 193.92 53.1354Z" fill="black"/>
<path opacity="0.5" d="M106.384 131.447L106.654 132.234L105.503 132.707L105.638 133.1L106.022 132.943L113.18 129.552L114.716 128.921L114.851 129.314L114.376 130.407L114.895 130.642L115.188 131.419C115.688 132.763 115.589 133.7 114.893 134.233L115.727 135.236L115.749 136.573L115.23 136.338L114.846 136.496C111.337 138.149 109.643 139.144 109.765 139.481L109.223 139.255C105.127 141.748 103.432 143.94 104.139 145.832L105.288 148.949L114.208 144.386L114.75 144.612L114.885 145.005L112.966 145.794L113.101 146.187C114.381 145.661 115.11 145.661 115.291 146.185L115.448 146.569C115.929 147.867 115.914 148.621 115.402 148.831L113.098 149.778L113.233 150.171L115.921 149.067L116.214 149.844C116.378 150.287 113.509 152.513 107.608 156.521L108.801 160.967L109.343 161.193L109.5 161.577L109.252 162.128L109.387 162.521L110.199 163.533L109.815 163.691L110.627 164.704C111.163 165.751 111.084 168.106 110.39 171.77L107.161 172.648L106.103 168.595C105.124 168.997 104.44 168.724 104.05 167.776L104.004 167.663C104.129 166.855 102.938 162.628 100.43 154.984L101.198 154.668L100.679 154.433L99.9134 151.158L100.433 151.393L100.816 151.235L99.7808 147.174L99.2176 145.61C97.9379 146.136 97.1929 146.143 96.9826 145.631L97.3223 144.146C96.2986 144.566 95.6516 144.383 95.3812 143.597C94.51 141.263 94.4583 139.938 95.226 139.622C96.5057 139.097 96.9051 138.185 96.4245 136.886L96.8084 136.729L97.3274 136.964L97.8249 135.862L98.9765 135.389L100.556 136.086L106.384 131.447ZM108.234 132.931L108.369 133.324L109.521 132.851L113.609 130.722L113.451 130.338L111.147 131.285L108.234 132.931ZM106.356 138.638L106.514 139.022L106.898 138.864L114.26 134.942L114.125 134.548L112.838 134.629L112.589 135.179L112.206 135.337L111.687 135.102L106.356 138.638ZM102.482 158.179L104.059 162.467L104.443 162.309L102.866 158.021L102.482 158.179ZM107.547 168.899L108.11 170.463L108.494 170.305L107.931 168.741L107.547 168.899ZM122.513 126.377C122.768 127.169 123.408 127.355 124.431 126.935L125.762 128.183L125.514 128.734L125.898 128.576C126.288 134.75 127.743 141.481 130.263 148.769L131.074 151.128L131.615 151.354L131.751 151.747L131.502 152.298L131.886 152.141L131.637 152.691L132.967 155.286L133.238 156.072C132.548 158.291 132.359 159.865 132.67 160.793L131.134 161.424L128.967 161.417L128.405 158.507L126.306 157.575L124.64 151.528L122.184 144.461L122.546 142.966L122.006 141.393L121.486 141.158L121.351 140.764L122.119 140.449L121.984 140.056L121.465 139.82L120.026 131.886L119.642 132.044L119.891 131.493L119.057 129.143L118.538 128.908L118.403 128.515L122.513 126.377ZM121.107 135.031L122.076 137.774L122.46 137.617L121.491 134.874L121.107 135.031ZM122.097 139.112L122.908 141.471L123.292 141.313L122.481 138.954L122.097 139.112ZM122.93 142.808L123.764 145.158L124.148 145L123.314 142.65L122.93 142.808ZM129.172 158.191L129.848 160.157L130.323 159.065L129.94 157.876L129.172 158.191ZM147.8 115.009L149.109 114.92L149.425 115.688L148.273 116.161L149.514 116.997C149.483 118.505 147.698 119.987 144.161 121.44L141.631 122.929L141.721 124.238L142.104 124.08C142.085 126.217 143.915 135.038 147.594 150.542L150.796 155.06L150.412 155.217C149.84 155.452 148.803 154.383 147.299 152.009L146.106 148.013L145.948 147.629L145.564 147.787L145.88 148.554C145.112 148.87 144.833 149.284 145.043 149.795L145.201 150.179L148.493 156.006L148.651 156.39L147.883 156.705L145.874 156.185L145.648 156.726L145.264 156.884C143.331 155.092 142.03 153.383 141.362 151.757L141.904 151.983L142.288 151.825L140.416 149.454L141.41 148.596L140.621 146.677L139.853 146.992L139.695 146.609C140.463 146.293 140.742 145.879 140.532 145.367L140.374 144.984L139.606 145.299C138.765 143.252 138.728 142.07 139.496 141.755L137.445 136.764C137.703 136.236 137.111 133.338 135.668 128.071L133.138 129.56L127.606 131.384L127.448 131L129.21 129.828L129.368 130.212L129.594 129.67L135.352 127.304L134.879 126.152L129.052 129.444L128.511 129.218L128.127 129.375L125.981 130.706L124.514 130.411L124.109 128.334L123.567 128.108C123.042 126.828 124.314 125.558 127.385 124.296L147.8 115.009ZM145.97 117.107L146.128 117.491L147.663 116.86L147.505 116.476L145.97 117.107ZM140.6 144.442L143.303 153.203L144.071 152.888L142.898 151.126L142.582 150.358L142.877 148.891L142.493 149.049L142.719 148.507L142.561 148.123L142.02 147.897L141.862 147.513L141.999 145.662L140.984 144.284L140.6 144.442ZM153.31 113.774L156.944 114.973C156.629 114.205 156.727 113.716 157.239 113.506L157.623 113.348L168.676 124.96L168.992 125.727L168.608 125.885L166.893 123.897L166.51 124.055L166.825 124.823L172.194 130.245L172.578 130.087C170.867 123.012 169.488 115.458 168.439 107.425L169.906 107.72L170.9 106.863L173.677 107.068L173.834 107.452C173.067 107.767 172.893 108.437 173.314 109.461L173.698 109.303L174.239 109.529L174.623 109.371L174.218 107.294L174.986 106.978L175.144 107.362L174.918 107.904L175.459 108.13L175.617 108.514C176.121 115.222 177.876 124.417 180.881 136.098L180.114 136.413L178.357 129.956C177.845 130.166 178.077 132.913 179.051 138.196C178.418 139.354 177.68 140.106 176.837 140.452L177.153 141.22L176.769 141.378C176.559 140.866 175.942 140.82 174.918 141.241L173.814 138.554C173.337 137.394 168.149 132.048 158.248 122.514L157.864 122.672C158.715 127.654 160.343 134.164 162.749 142.203L162.207 141.977C160.858 143.059 160.353 144.015 160.693 144.843L159.925 145.158C159.017 144.405 158.078 142.847 157.107 140.483L156.723 140.641L158.142 144.096L157.375 144.411L156.202 142.65C153.344 135.695 151.409 126.618 150.397 115.42L153.31 113.774ZM151.88 125.58L152.038 125.964L152.579 126.19L152.353 126.731L152.669 127.499L153.052 127.342L152.805 125.648L152.264 125.422L151.88 125.58ZM168.992 125.727C169.654 125.455 170.587 126.269 171.789 128.168L171.947 128.551L171.563 128.709L168.992 125.727ZM195.667 96.1571L198.048 96.6833C198.44 99.1793 197.91 100.673 196.458 101.164L186.617 105.736L186.887 106.522L188.84 105.878L191.073 104.697L191.611 104.977L192.004 104.842L194.621 103.503L195.417 103.255L195.552 103.648L187.012 108.239L188.354 113.495L188.747 113.36L198.836 108.237L199.342 108.504L199.477 108.898L198.682 109.145L198.84 109.529L201.723 109.031L201.858 109.424C201.889 111.083 198.692 113.751 192.267 117.43L188.461 119.152L188.98 119.387L189.133 125.026L188.749 125.184L187.555 121.636L187.162 121.771L188.607 127.407C195.849 123.234 201.094 120.604 204.342 119.515L206.43 119.264L206.723 120.042L205.936 120.312L206.442 120.579L206.848 121.759C206.506 123.025 205.107 124.075 202.652 124.908L202.787 125.301L205.942 124.243L206.189 125.038L189.404 134.998L189.01 135.133C187.665 135.369 186.883 135.224 186.667 134.697L186.639 134.629L186.234 133.45L185.587 128.859L185.059 128.601L185.836 128.308L186.489 130.283L186.892 130.17C186.517 128.829 186.564 128.088 187.034 127.947L186.497 127.667L185.199 123.739L184.404 123.987L184.664 126.097L184.944 125.56L185.338 125.424L186.126 127.793L185.724 127.905L185.327 126.748L184.934 126.884L185.205 127.67L184.811 127.805L184.541 127.019L183.097 120.037L182.704 120.172L182.824 117.958L182.295 117.7L182.16 117.307L180.333 110.483L180.861 110.741L181.254 110.606L180.984 109.819L179.937 107.979L179.136 104.296L178.731 103.117L179.133 103.004L179.662 103.262L179.92 102.734L180.322 102.621L180.841 102.857L181.099 102.328L182.288 101.945L195.667 96.1571ZM183.345 120.832L184.269 123.594L184.662 123.459L183.747 120.72L183.345 120.832ZM196.217 116.123L196.601 115.965L196.714 116.368L190.046 119.926L189.509 119.645L189.383 119.275L192.796 117.688L192.931 118.081L196.217 116.123ZM209.73 89.7186C210.617 89.9521 212.875 89.3233 216.503 87.8324L216.639 88.2256L213.951 89.3299L214.087 89.723C217.293 88.4053 219.611 88.3503 221.04 89.558L221.31 90.3443L219.391 91.1331L219.526 91.5263L222.348 90.8152L222.483 91.2084L220.18 92.1549L220.315 92.548C221.083 92.2325 221.557 92.3369 221.737 92.8611C217.176 94.7356 213.787 98.0725 211.571 102.872L211.707 103.265C217.204 102.555 222.335 103.886 227.1 107.26L227.235 107.653C227.663 111.349 226.313 115.493 223.185 120.086L220.995 121.435L221.13 121.829L221.898 121.513C222.152 122.218 220.119 123.951 215.799 126.712L215.528 125.925L217.448 125.137L217.335 124.734C215.694 125.408 213.843 125.122 211.782 123.875C210.397 123.758 209.364 122.871 208.683 121.216C208.621 121.065 208.564 120.904 208.511 120.732L209.392 119.472L210.814 119.785L211.582 119.47C218.344 115.371 221.124 111.537 219.921 107.967C216.264 107.674 213.946 107.729 212.967 108.132L213.102 108.525L208.7 108.539L209.219 108.774L209.512 109.551C205.356 108.514 203.061 107.363 202.629 106.098L203.424 99.4891L204.803 97.1277L205.073 97.914L209.73 89.7186ZM208.75 102.236L208.885 102.63L213.924 95.623L216.725 93.5746L216.455 92.7883L215.687 93.1038C212.256 96.2734 209.944 99.3176 208.75 102.236ZM217.34 117.104L217.724 116.946L218.222 115.844L217.838 116.002L217.34 117.104ZM224.25 114.264L223.391 116.861L223.775 116.703L224.634 114.106L224.25 114.264ZM220.703 119.312L220.86 119.696L221.244 119.538L222.374 117.727L220.703 119.312ZM217.449 123.79L217.584 124.183L219.119 123.552L220.904 122.37L220.746 121.986L220.362 122.144L217.449 123.79ZM231.995 80.569C232.883 80.8024 235.141 80.1737 238.769 78.6828L238.904 79.0759L236.217 80.1802L236.352 80.5734C239.559 79.2557 241.877 79.2007 243.305 80.4084L243.576 81.1947L241.656 81.9835L241.792 82.3766L244.614 81.6655L244.749 82.0587L242.446 83.0052L242.581 83.3984C243.349 83.0829 243.823 83.1872 244.003 83.7115C239.441 85.5859 236.053 88.9229 233.837 93.7223L233.972 94.1155C239.47 93.4049 244.601 94.7365 249.366 98.1103L249.501 98.5034C249.928 102.199 248.578 106.343 245.451 110.937L243.26 112.286L243.395 112.679L244.163 112.363C244.418 113.068 242.385 114.801 238.064 117.562L237.794 116.776L239.713 115.987L239.601 115.584C237.96 116.259 236.109 115.972 234.048 114.725C232.662 114.608 231.629 113.722 230.949 112.066C230.887 111.915 230.83 111.754 230.777 111.582L231.658 110.323L233.08 110.636L233.848 110.32C240.61 106.222 243.389 102.387 242.186 98.8169C238.529 98.5248 236.211 98.5798 235.233 98.982L235.368 99.3751L230.966 99.3893L231.485 99.6247L231.778 100.402C227.621 99.3647 225.327 98.2135 224.895 96.9481L225.69 90.3395L227.069 87.9781L227.339 88.7644L231.995 80.569ZM231.016 93.0868L231.151 93.48L236.19 86.4734L238.991 84.425L238.72 83.6387L237.953 83.9542C234.522 87.1237 232.209 90.168 231.016 93.0868ZM239.606 107.954L239.99 107.796L240.487 106.694L240.104 106.852L239.606 107.954ZM246.516 105.115L245.656 107.711L246.04 107.554L246.9 104.957L246.516 105.115ZM242.968 110.162L243.126 110.546L243.51 110.388L244.64 108.578L242.968 110.162ZM239.714 114.64L239.849 115.034L241.385 114.403L243.169 113.221L243.011 112.837L242.628 112.994L239.714 114.64Z" fill="black"/>
<path opacity="0.5" d="M124.075 185.624C125.19 185.136 126.165 185.064 127.002 185.406C127.838 185.749 128.532 186.55 129.083 187.808L132.007 194.487L130.25 195.256L127.318 188.559C126.965 187.751 126.532 187.265 126.02 187.101C125.512 186.928 124.903 186.997 124.196 187.306C123.745 187.504 123.393 187.774 123.14 188.116C122.884 188.452 122.73 188.825 122.679 189.235C122.633 189.643 122.678 190.06 122.812 190.487L125.76 197.222L124.004 197.991L121.076 191.303C120.432 189.831 119.386 189.412 117.94 190.045C117.358 190.3 116.932 190.639 116.662 191.063C116.39 191.481 116.252 191.959 116.249 192.498L119.514 199.956L117.757 200.725L113.308 190.562L114.971 189.834L115.508 190.908C115.678 190.341 115.965 189.839 116.37 189.4C116.773 188.955 117.296 188.592 117.941 188.309C118.611 188.016 119.256 187.894 119.875 187.944C120.497 187.985 121.056 188.222 121.551 188.654C121.682 188 121.957 187.409 122.376 186.883C122.801 186.354 123.367 185.934 124.075 185.624ZM141.416 187.726C141.572 188.083 141.765 188.439 141.995 188.794C142.222 189.142 142.45 189.423 142.678 189.637L142.743 189.787L140.912 190.589C140.698 190.391 140.462 190.073 140.203 189.634C140.017 190.164 139.727 190.652 139.334 191.101C138.944 191.54 138.455 191.888 137.866 192.146C137.19 192.442 136.531 192.574 135.89 192.541C135.252 192.499 134.689 192.313 134.201 191.982C133.719 191.648 133.356 191.202 133.112 190.645C132.797 189.925 132.714 189.234 132.865 188.571C133.021 187.905 133.386 187.298 133.959 186.749C134.535 186.19 135.29 185.707 136.223 185.299L137.932 184.55L137.579 183.742C137.307 183.122 136.91 182.718 136.387 182.529C135.868 182.331 135.264 182.383 134.575 182.684C134.155 182.868 133.812 183.108 133.546 183.403C133.277 183.693 133.104 184.004 133.026 184.336C132.951 184.66 132.977 184.966 133.103 185.254L131.346 186.023C131.13 185.528 131.089 184.975 131.224 184.364C131.36 183.752 131.671 183.168 132.159 182.612C132.644 182.049 133.28 181.594 134.07 181.249C134.821 180.92 135.535 180.761 136.211 180.771C136.89 180.772 137.502 180.959 138.046 181.333C138.588 181.7 139.02 182.253 139.344 182.992L141.416 187.726ZM137.462 190.532C137.863 190.357 138.205 190.125 138.489 189.836C138.777 189.539 138.995 189.219 139.144 188.878C139.293 188.536 139.374 188.202 139.388 187.875L138.467 185.771L137.039 186.396C136.037 186.835 135.34 187.33 134.948 187.883C134.552 188.429 134.49 189.012 134.762 189.632C134.907 189.964 135.113 190.228 135.378 190.426C135.643 190.623 135.954 190.737 136.311 190.767C136.665 190.791 137.048 190.713 137.462 190.532ZM145.911 182.781L145.315 184.385L146.886 187.974L145.129 188.742L138.813 174.314L140.57 173.545L144.386 182.262L144.835 180.756L146.504 176.029L148.636 175.096L146.536 181.064L153.555 185.054L151.489 185.959L145.911 182.781ZM161.065 176.282L154.189 179.292C154.485 179.916 154.867 180.431 155.336 180.838C155.805 181.244 156.328 181.501 156.904 181.607C157.484 181.704 158.074 181.621 158.675 181.357C159.264 181.1 159.719 180.759 160.041 180.334C160.369 179.907 160.604 179.397 160.748 178.805L162.171 179.167C162.048 179.907 161.754 180.599 161.289 181.243C160.822 181.88 160.125 182.402 159.198 182.807C158.271 183.213 157.362 183.361 156.471 183.251C155.58 183.142 154.777 182.799 154.062 182.224C153.354 181.646 152.793 180.884 152.379 179.938L152.202 179.535C151.739 178.476 151.541 177.462 151.609 176.492C151.674 175.516 151.953 174.67 152.446 173.954C152.945 173.236 153.582 172.707 154.359 172.367C155.305 171.953 156.181 171.823 156.987 171.978C157.797 172.123 158.515 172.503 159.142 173.116C159.769 173.73 160.296 174.525 160.724 175.502L161.065 176.282ZM158.634 175.51C158.236 174.737 157.729 174.168 157.114 173.802C156.503 173.428 155.79 173.42 154.976 173.776C154.274 174.083 153.801 174.596 153.556 175.315C153.315 176.025 153.339 176.873 153.629 177.858L158.692 175.642L158.634 175.51ZM166.744 173.963C165.426 174.242 164.358 174.292 163.54 174.112C162.729 173.93 162.15 173.441 161.802 172.646C161.566 172.107 161.506 171.544 161.622 170.956C161.737 170.368 162.021 169.815 162.473 169.296C162.931 168.775 163.53 168.352 164.269 168.029C165.058 167.683 165.808 167.523 166.52 167.547C167.232 167.571 167.847 167.757 168.365 168.105C168.887 168.444 169.276 168.907 169.534 169.496L167.778 170.265C167.651 169.977 167.445 169.735 167.158 169.54C166.871 169.345 166.528 169.234 166.128 169.207C165.732 169.172 165.318 169.249 164.886 169.438C164.429 169.638 164.081 169.876 163.844 170.151C163.603 170.421 163.462 170.703 163.419 170.997C163.38 171.283 163.418 171.558 163.533 171.821C163.651 172.09 163.813 172.288 164.017 172.415C164.226 172.532 164.527 172.591 164.922 172.589C165.323 172.585 165.87 172.514 166.563 172.375C167.5 172.196 168.292 172.122 168.939 172.152C169.587 172.182 170.122 172.331 170.546 172.601C170.977 172.868 171.311 173.274 171.549 173.819C171.807 174.407 171.873 175.001 171.748 175.601C171.62 176.194 171.314 176.75 170.832 177.267C170.346 177.778 169.712 178.205 168.93 178.547C168.065 178.926 167.25 179.1 166.483 179.07C165.72 179.031 165.064 178.829 164.517 178.464C163.969 178.1 163.569 177.629 163.317 177.053L165.073 176.284C165.296 176.724 165.589 177.036 165.953 177.22C166.314 177.398 166.698 177.472 167.103 177.444C167.515 177.413 167.918 177.311 168.313 177.138C168.77 176.938 169.134 176.704 169.405 176.437C169.679 176.16 169.853 175.875 169.926 175.582C169.996 175.282 169.97 174.991 169.846 174.71C169.723 174.428 169.557 174.21 169.347 174.055C169.138 173.901 168.826 173.81 168.411 173.782C167.996 173.755 167.44 173.815 166.744 173.963ZM186.127 158.46C187.242 157.972 188.217 157.899 189.054 158.242C189.89 158.585 190.584 159.385 191.135 160.644L194.059 167.323L192.302 168.092L189.37 161.394C189.017 160.586 188.584 160.101 188.072 159.937C187.563 159.764 186.955 159.832 186.248 160.142C185.797 160.339 185.445 160.609 185.192 160.951C184.936 161.287 184.782 161.66 184.73 162.071C184.685 162.479 184.73 162.896 184.864 163.322L187.812 170.057L186.056 170.826L183.128 164.138C182.484 162.667 181.438 162.247 179.992 162.881C179.409 163.136 178.983 163.475 178.714 163.899C178.442 164.317 178.304 164.795 178.301 165.334L181.566 172.792L179.809 173.561L175.36 163.397L177.023 162.669L177.56 163.744C177.73 163.177 178.017 162.674 178.422 162.236C178.825 161.791 179.348 161.427 179.993 161.145C180.663 160.852 181.308 160.73 181.927 160.78C182.549 160.821 183.108 161.058 183.603 161.49C183.734 160.836 184.009 160.245 184.428 159.719C184.853 159.189 185.419 158.77 186.127 158.46ZM202.865 157.983L195.989 160.993C196.285 161.617 196.667 162.133 197.136 162.539C197.605 162.946 198.128 163.202 198.704 163.308C199.284 163.405 199.874 163.322 200.475 163.059C201.064 162.801 201.519 162.46 201.841 162.036C202.169 161.608 202.404 161.099 202.548 160.506L203.971 160.868C203.848 161.608 203.554 162.301 203.089 162.944C202.622 163.581 201.925 164.103 200.998 164.509C200.071 164.914 199.162 165.062 198.271 164.953C197.38 164.843 196.577 164.5 195.862 163.925C195.154 163.347 194.593 162.585 194.179 161.64L194.002 161.236C193.539 160.178 193.341 159.163 193.409 158.193C193.474 157.217 193.753 156.371 194.246 155.656C194.745 154.937 195.382 154.408 196.159 154.068C197.105 153.654 197.981 153.524 198.787 153.679C199.597 153.824 200.315 154.204 200.942 154.817C201.569 155.431 202.096 156.226 202.524 157.203L202.865 157.983ZM200.434 157.211C200.036 156.438 199.529 155.869 198.914 155.504C198.303 155.13 197.59 155.121 196.776 155.477C196.074 155.784 195.601 156.297 195.356 157.016C195.115 157.726 195.139 158.574 195.429 159.559L200.492 157.343L200.434 157.211ZM211.893 147.18C214.066 146.229 215.691 146.984 216.768 149.445L219.684 156.105L217.927 156.874L215.003 150.195C214.664 149.419 214.248 148.929 213.756 148.727C213.271 148.521 212.69 148.567 212.013 148.863C211.475 149.098 211.054 149.458 210.751 149.941C210.454 150.422 210.288 150.965 210.254 151.569L213.437 158.84L211.681 159.608L205.364 145.18L207.121 144.411L209.514 149.878C209.689 149.272 209.978 148.739 210.381 148.279C210.781 147.812 211.285 147.446 211.893 147.18ZM229.055 149.361C229.211 149.718 229.405 150.073 229.634 150.428C229.861 150.776 230.089 151.057 230.317 151.271L230.383 151.421L228.551 152.223C228.338 152.026 228.101 151.707 227.842 151.269C227.656 151.798 227.366 152.287 226.973 152.735C226.583 153.174 226.094 153.523 225.505 153.78C224.829 154.076 224.17 154.208 223.529 154.175C222.891 154.134 222.328 153.947 221.84 153.616C221.358 153.282 220.995 152.837 220.751 152.28C220.436 151.559 220.354 150.868 220.504 150.205C220.66 149.54 221.025 148.932 221.598 148.383C222.174 147.825 222.929 147.341 223.862 146.933L225.572 146.185L225.218 145.377C224.947 144.757 224.549 144.352 224.026 144.163C223.507 143.965 222.903 144.017 222.214 144.319C221.794 144.502 221.452 144.742 221.185 145.038C220.917 145.327 220.743 145.638 220.665 145.971C220.59 146.294 220.616 146.6 220.742 146.888L218.985 147.657C218.769 147.163 218.728 146.61 218.864 145.998C218.999 145.387 219.31 144.803 219.798 144.246C220.283 143.683 220.92 143.229 221.709 142.883C222.46 142.554 223.174 142.395 223.85 142.405C224.529 142.406 225.141 142.593 225.685 142.967C226.227 143.334 226.659 143.888 226.983 144.627L229.055 149.361ZM225.101 152.166C225.502 151.991 225.844 151.759 226.128 151.47C226.416 151.173 226.634 150.853 226.783 150.512C226.932 150.171 227.014 149.837 227.027 149.51L226.106 147.406L224.678 148.031C223.676 148.469 222.979 148.965 222.587 149.517C222.192 150.063 222.13 150.646 222.401 151.266C222.546 151.598 222.752 151.863 223.017 152.06C223.283 152.257 223.594 152.371 223.95 152.402C224.304 152.426 224.688 152.347 225.101 152.166ZM232.859 138.002C233.698 137.635 234.509 137.537 235.293 137.709C236.075 137.874 236.79 138.281 237.44 138.93C238.086 139.572 238.637 140.413 239.092 141.452L239.179 141.649C239.615 142.645 239.847 143.603 239.877 144.523C239.91 145.434 239.726 146.241 239.326 146.947C238.929 147.643 238.321 148.17 237.5 148.529C236.273 149.067 235.136 149.102 234.088 148.635L236.226 153.52L234.47 154.289L228.31 140.217L229.907 139.518L230.486 140.586C230.815 139.412 231.606 138.551 232.859 138.002ZM237.336 142.221C237.029 141.52 236.653 140.934 236.209 140.465C235.768 139.986 235.268 139.671 234.71 139.52C234.157 139.367 233.577 139.423 232.97 139.689C232.419 139.93 232.004 140.261 231.725 140.681C231.447 141.102 231.283 141.58 231.234 142.116L233.377 147.01C234.299 147.703 235.29 147.818 236.348 147.355C236.949 147.091 237.381 146.705 237.643 146.195C237.902 145.678 238.005 145.096 237.952 144.447C237.906 143.796 237.729 143.12 237.422 142.418L237.336 142.221ZM243.661 133.273C244.5 132.906 245.311 132.808 246.096 132.98C246.877 133.145 247.592 133.552 248.242 134.201C248.889 134.843 249.44 135.684 249.895 136.723L249.981 136.921C250.417 137.916 250.65 138.874 250.679 139.794C250.712 140.705 250.529 141.513 250.128 142.218C249.732 142.914 249.123 143.441 248.303 143.8C247.075 144.338 245.938 144.373 244.89 143.906L247.029 148.791L245.272 149.56L239.112 135.489L240.709 134.79L241.288 135.857C241.617 134.683 242.408 133.822 243.661 133.273ZM248.138 137.492C247.831 136.791 247.455 136.205 247.011 135.736C246.57 135.257 246.07 134.942 245.512 134.791C244.959 134.638 244.38 134.694 243.772 134.96C243.221 135.201 242.806 135.532 242.528 135.952C242.249 136.373 242.085 136.851 242.036 137.387L244.179 142.281C245.102 142.974 246.092 143.089 247.15 142.626C247.752 142.363 248.183 141.976 248.445 141.466C248.704 140.95 248.807 140.367 248.754 139.718C248.708 139.067 248.531 138.391 248.224 137.689L248.138 137.492ZM257.467 127.454L258.526 140.97C258.574 141.763 258.47 142.513 258.213 143.223C257.966 143.936 257.435 144.47 256.621 144.827C256.489 144.884 256.309 144.941 256.08 144.996C255.859 145.056 255.689 145.093 255.569 145.108L254.956 143.708C255.03 143.691 255.113 143.666 255.203 143.634C255.296 143.608 255.377 143.58 255.446 143.55C256.041 143.289 256.447 142.963 256.663 142.57C256.888 142.18 256.968 141.63 256.903 140.92L256.832 139.708L248.806 131.245L250.722 130.406L256.57 136.913L255.597 128.272L257.467 127.454Z" fill="black"/>
<defs>
<linearGradient id="paint0_linear" x1="65.2164" y1="249.605" x2="727.447" y2="282.667" gradientUnits="userSpaceOnUse">
<stop stop-color="#1A7F54"/>
<stop offset="1" stop-color="#7ADBAE"/>
</linearGradient>
<linearGradient id="paint1_linear" x1="46.3411" y1="275.002" x2="709.123" y2="255.975" gradientUnits="userSpaceOnUse">
<stop stop-color="#1A7F72"/>
<stop offset="1" stop-color="#7ADBAE"/>
</linearGradient>
<clipPath id="clip0">
<rect width="500" height="663.434" fill="white" transform="matrix(-0.0498641 0.998756 0.998756 0.0498641 77.6367 0)"/>
</clipPath>
<clipPath id="clip1">
<rect width="500" height="663.434" fill="white" transform="matrix(0.0286964 0.999588 0.999588 -0.0286964 39.1281 25.1929)"/>
</clipPath>
</defs>
</svg>
