<svg width="704" height="554" viewBox="0 0 704 554" fill="none" xmlns="http://www.w3.org/2000/svg">
<g opacity="0.1" clip-path="url(#clip0)">
<path d="M209.436 154.091C243.658 146.829 279.938 147.753 313.336 137.143C358.404 123.116 393.297 90.5151 431.042 63.8601C469.193 37.5755 517.849 16.0784 563.065 29.6225C623.217 47.5578 644.538 115.254 656.533 172.568C669.354 233.603 682.175 294.639 694.997 356.046C702.022 388.424 708.257 423.786 691.486 453.309C670.324 490.681 620.818 503.986 576.115 510.931C398.516 539.45 -69.3245 561.323 61.7237 269.263C87.2147 212.122 144.213 167.852 209.436 154.091Z" fill="url(#paint0_linear)"/>
</g>
<g opacity="0.1" clip-path="url(#clip1)">
<path d="M181.717 167.451C215.263 157.525 251.504 155.598 283.966 142.398C327.794 124.877 360.019 89.6373 395.556 60.1014C431.526 30.9029 478.344 5.65243 524.483 15.6051C585.858 28.7629 612.427 94.5766 628.884 150.772C646.457 210.612 664.03 270.453 681.634 330.664C691.179 362.39 700.171 397.154 685.77 427.903C667.606 466.82 619.297 483.97 575.278 494.404C400.466 536.777 -64.2136 595.31 43.5022 293.864C64.4286 234.897 117.776 186.29 181.717 167.451Z" fill="url(#paint1_linear)"/>
</g>
<path d="M135.546 477.569C135.546 477.569 105.76 483.021 104.307 483.021C92.3205 483.748 42.9202 498.651 44.3732 508.828C45.0997 510.282 52.0012 512.1 54.9071 507.011C65.0777 511.736 68.7101 510.282 75.6116 507.374C80.3337 505.557 84.3293 504.467 88.3249 508.465C91.9573 512.463 103.581 516.098 110.119 512.463C115.931 509.192 113.751 503.74 118.11 499.378C118.474 499.014 147.533 492.108 148.259 491.745C153.708 487.383 137.725 476.478 135.546 477.569Z" fill="#F4A082"/>
<path fill-rule="evenodd" clip-rule="evenodd" d="M526.752 140.619C526.752 140.619 517.671 99.5458 482.8 88.6413C456.284 80.2812 409.79 79.5542 391.991 119.901C372.013 166.063 399.982 161.338 386.906 181.693C373.829 202.048 353.851 195.869 350.219 212.225C346.586 228.582 361.116 251.118 356.757 260.205C352.035 269.292 329.151 286.012 334.963 300.552C341.864 317.999 356.031 322.361 350.945 331.448C341.138 348.895 323.702 345.624 326.245 349.622C328.788 353.62 383.273 377.247 401.072 358.345C414.512 344.533 407.973 321.997 410.153 311.456C414.875 290.374 445.387 280.197 464.638 272.564C484.253 264.93 486.433 236.215 491.881 222.766C497.693 209.681 537.649 210.771 526.752 140.619Z" fill="#1D3542"/>
<path d="M480.984 97.7291C464.639 88.6421 422.503 85.3707 404.341 125.717C387.269 163.883 413.422 173.697 400.346 193.689C387.269 213.68 366.565 208.955 362.932 225.312C359.3 241.668 373.829 256.935 369.107 266.022C364.385 275.109 343.317 286.74 349.129 300.916C356.031 318.363 370.923 323.088 344.407 348.532" stroke="#01080A" stroke-miterlimit="10" stroke-linecap="round" stroke-linejoin="round"/>
<path d="M394.17 117.719C374.192 156.612 391.628 155.158 378.188 176.967C364.748 198.776 345.86 194.051 341.864 211.498C337.868 228.945 354.577 250.027 349.855 259.841C345.133 269.655 325.882 284.558 335.326 300.188" stroke="#01080A" stroke-miterlimit="10" stroke-linecap="round" stroke-linejoin="round"/>
<path d="M484.98 108.269C468.634 99.1819 464.275 114.812 413.785 127.534C396.713 165.699 427.588 177.694 414.512 198.049C401.435 218.404 380.73 213.315 377.098 229.672C373.466 246.029 387.995 261.295 383.273 270.382C378.551 279.469 357.483 291.101 363.295 305.277C370.197 322.724 385.089 327.449 358.573 352.893" stroke="#01080A" stroke-miterlimit="10" stroke-linecap="round" stroke-linejoin="round"/>
<path d="M441.754 136.985C422.503 174.06 453.015 187.872 438.848 207.5C424.682 227.129 404.341 220.949 399.619 236.943C395.26 252.936 409.063 268.929 403.978 278.016C398.892 287.103 377.098 297.281 382.183 312.183C388.359 329.994 397.076 330.721 369.107 355.074" stroke="#01080A" stroke-miterlimit="10" stroke-linecap="round" stroke-linejoin="round"/>
<path d="M473.356 147.525C450.472 182.42 479.168 199.14 463.186 217.314C447.203 235.488 427.225 227.128 421.413 242.758C415.238 258.388 427.225 275.471 421.413 283.831C415.238 292.191 392.718 300.188 396.35 315.454C400.709 333.629 409.063 335.446 378.915 356.891" stroke="#01080A" stroke-miterlimit="10" stroke-linecap="round" stroke-linejoin="round"/>
<path d="M452.652 177.694C451.199 185.691 450.472 216.587 446.477 215.86C445.024 215.496 433.763 216.95 431.947 216.95C419.234 218.768 397.077 215.86 392.354 228.218C387.996 239.123 433.037 279.833 426.135 306.731C423.23 317.999 411.606 356.891 410.88 368.523C462.822 377.973 516.945 369.25 516.218 364.888C516.218 336.173 501.689 321.633 504.595 298.007C506.774 295.099 514.402 271.109 514.765 263.84C515.129 256.933 548.183 234.398 531.111 223.13C509.68 209.317 483.164 219.131 482.437 214.043C481.711 208.954 482.074 195.868 480.258 181.693C478.442 168.971 454.105 169.334 452.652 177.694Z" fill="#F4A082"/>
<path opacity="0.6" d="M478.441 187.872C478.441 193.688 468.634 202.411 459.553 202.048C450.472 202.048 450.393 198.365 451.293 192.282C451.293 186.466 450.109 180.239 459.19 180.239C468.634 180.602 478.441 181.693 478.441 187.872Z" fill="#DB8C70"/>
<path d="M434.127 149.344C434.127 149.344 428.315 143.165 427.952 150.798C427.225 166.791 436.669 168.972 437.759 169.335C439.212 169.699 434.127 149.344 434.127 149.344Z" fill="#F4A082"/>
<path d="M498.056 149.706C498.056 149.706 503.868 143.526 504.231 151.16C504.958 167.153 495.514 169.334 494.424 169.697C492.971 170.061 498.056 149.706 498.056 149.706Z" fill="#F4A082"/>
<path fill-rule="evenodd" clip-rule="evenodd" d="M434.49 133.713C433.763 139.165 433.037 145.708 433.4 152.614C433.4 184.964 452.652 193.688 469.361 194.051C491.518 195.142 502.415 164.609 500.236 146.799C498.783 135.531 497.33 130.442 493.698 123.536C480.984 105.362 484.617 119.537 434.49 133.713Z" fill="#F4A082"/>
<path d="M515.068 251.666C509.85 244.123 505.602 229.656 504.036 223.139C502.469 216.623 500.997 215.558 500.997 215.558C500.997 215.558 496.62 214.544 495.186 215.66C495.569 216.744 506.237 245.277 502.656 248.248C499.795 250.842 473.517 264.752 463.417 268.927C453.178 265.107 424.616 252.155 421.666 249.661C418.347 246.811 427.33 218.611 427.674 217.514C425.425 217.064 422.05 217.514 422.05 217.514C422.05 217.514 420.753 218.05 419.414 224.617C418.075 231.184 416.13 244.669 411.918 253.104C405.257 267.034 405.548 283.752 419.226 297.328C419.965 298.042 421.106 300.93 421.857 302.371C422.978 304.169 419.808 330.763 419.808 330.763C444.701 341.598 496.942 337.414 510.241 329.184C510.241 329.184 508.926 295.398 509.64 294.658C521.811 284.267 520.285 259.209 515.068 251.666Z" fill="#FFD2B9"/>
<path d="M466.818 140.256C468.634 148.252 467.181 156.613 466.455 158.067C465.002 160.247 461.369 158.43 461.733 160.247C462.459 164.609 467.908 164.973 470.45 163.155" stroke="#EFAFA3" stroke-width="1.38" stroke-miterlimit="10" stroke-linecap="round" stroke-linejoin="round"/>
<path opacity="0.69" d="M442.844 137.711C445.024 136.621 449.746 135.894 453.378 137.348" stroke="#682C1A" stroke-width="1.31" stroke-miterlimit="10" stroke-linecap="round" stroke-linejoin="round"/>
<path d="M454.468 149.343C452.652 152.251 446.114 152.614 443.934 149.706" stroke="#49241B" stroke-miterlimit="10" stroke-linecap="round" stroke-linejoin="round"/>
<path d="M490.065 149.707C488.249 152.614 481.711 152.978 479.531 150.07" stroke="#49241B" stroke-miterlimit="10" stroke-linecap="round" stroke-linejoin="round"/>
<path opacity="0.69" d="M489.339 138.076C487.159 136.985 482.074 136.258 478.442 137.712" stroke="#682C1A" stroke-width="1.31" stroke-miterlimit="10" stroke-linecap="round" stroke-linejoin="round"/>
<path d="M459.19 173.425C459.916 174.879 468.634 179.241 474.446 173.062" stroke="#BC4926" stroke-width="1.45" stroke-miterlimit="10" stroke-linecap="round" stroke-linejoin="round"/>
<path opacity="0.24" fill-rule="evenodd" clip-rule="evenodd" d="M453.741 162.792C452.288 165.7 447.566 166.427 443.208 164.973C438.849 163.156 436.669 159.521 438.485 156.613C439.938 153.705 444.66 152.978 449.019 154.432C453.378 156.249 455.194 159.884 453.741 162.792Z" fill="#ED5851"/>
<path opacity="0.24" fill-rule="evenodd" clip-rule="evenodd" d="M480.984 163.156C482.8 165.7 487.522 166.427 491.518 164.246C495.514 162.066 497.33 158.431 495.514 155.523C493.697 152.979 488.975 152.252 484.98 154.432C480.621 156.613 478.805 160.612 480.984 163.156Z" fill="#ED5851"/>
<path d="M465.728 365.251C465.728 367.068 465.002 368.886 463.912 368.886C462.823 368.886 462.096 367.432 462.096 365.251C462.096 363.434 462.823 361.616 463.912 361.616C464.639 361.98 465.728 363.434 465.728 365.251Z" fill="#EFAFA3"/>
<path d="M429.768 117.72C435.216 108.633 458.464 93.73 482.074 96.2744" stroke="#01080A" stroke-miterlimit="10" stroke-linecap="round" stroke-linejoin="round"/>
<path d="M622.647 282.377C626.279 270.746 613.203 252.208 595.767 259.478C574.336 264.93 514.765 351.075 514.765 351.075C514.765 351.075 473.356 365.251 412.696 355.074C410.516 360.162 403.978 374.702 403.978 374.702C403.978 374.702 350.219 403.78 270.307 440.129C239.068 454.304 135.183 476.113 135.183 477.204C135.183 480.839 135.183 493.561 135.183 493.561C135.183 493.561 257.593 507.373 295.37 466.663C295.37 466.663 393.807 457.212 466.455 423.772C518.761 428.134 539.466 399.419 571.43 360.162C596.494 329.266 616.835 300.915 622.647 282.377Z" fill="#1F5148"/>
<path d="M411.928 358.097C411.928 358.097 460.965 372.967 513.676 354.71" stroke="#1D4941" stroke-width="1.44" stroke-miterlimit="10" stroke-linecap="round" stroke-linejoin="round"/>
<path d="M410.354 361.477C410.354 361.477 462.54 377.923 512.223 358.709" stroke="#1D4941" stroke-width="1.44" stroke-miterlimit="10" stroke-linecap="round" stroke-linejoin="round"/>
<path d="M515.401 351.113L506.048 373.247" stroke="#1D4941" stroke-width="1.44" stroke-miterlimit="10" stroke-linecap="round"/>
<path d="M590.682 420.502C590.682 420.502 583.78 449.217 583.417 450.671C582.691 457.94 586.323 470.299 579.058 498.287C591.408 500.104 587.413 509.918 578.332 509.918C552.542 509.918 559.443 493.562 563.439 482.294C565.255 477.205 562.713 471.753 558.717 468.118C554.721 464.483 550.363 453.215 553.632 446.672C556.901 440.857 564.529 442.311 568.524 437.949C568.888 437.585 568.161 413.232 568.524 412.505C572.883 405.962 591.408 418.321 590.682 420.502Z" fill="#F4A082"/>
<path d="M622.647 275.834C627.369 312.909 590.319 404.507 590.319 435.766C590.319 435.766 575.789 442.309 568.161 433.949C569.251 407.051 547.093 359.072 582.327 311.455C603.758 282.013 609.57 284.194 622.647 275.834Z" fill="#1F5148"/>
<path d="M575.212 316.37C575.212 316.37 558.978 343.455 562.414 377.247" stroke="#1D4941" stroke-width="1.75" stroke-miterlimit="10" stroke-linecap="round"/>
<path d="M392.354 228.219C387.269 232.581 360.026 343.807 368.744 348.169C377.825 352.53 465.728 309.276 465.728 309.276C465.728 309.276 463.912 260.206 463.912 247.484C458.827 246.757 452.652 299.098 452.652 299.098C452.652 299.098 399.619 319.09 396.713 321.634C393.807 324.179 409.426 257.661 412.696 252.573C413.785 247.484 397.803 224.221 392.354 228.219Z" fill="#F4A082"/>
<path d="M534.743 228.219C539.829 232.581 567.072 343.807 558.354 348.169C549.273 352.53 461.733 309.276 461.733 309.276C461.733 309.276 463.549 260.206 463.549 247.484C468.634 246.757 474.809 299.098 474.809 299.098C474.809 299.098 527.842 319.09 530.748 321.634C533.654 324.179 518.035 257.661 514.765 252.573C513.312 247.484 529.658 224.221 534.743 228.219Z" fill="#F4A082"/>
<path d="M463.549 310.003L463.912 246.03" stroke="#DB8C70" stroke-width="1.38" stroke-miterlimit="10" stroke-linecap="round" stroke-linejoin="round"/>
<path d="M468.634 353.983C468.634 355.8 467.544 357.254 466.455 357.254C465.365 357.254 464.639 355.437 464.639 353.619C464.639 351.802 465.728 350.348 466.818 350.348C467.908 350.348 468.997 351.802 468.634 353.983Z" fill="#DB8C70"/>
<path d="M404.341 376.883L436.669 393.24" stroke="#1D4941" stroke-width="1.44" stroke-miterlimit="10" stroke-linecap="round"/>
<path opacity="0.56" d="M609.358 512.564C609.378 514.466 486.779 517.34 335.408 518.916C184.04 520.492 61.4087 520.247 61.3881 518.268C61.3683 516.366 183.967 513.492 335.335 511.916C486.706 510.341 609.339 510.661 609.358 512.564Z" fill="black" fill-opacity="0.2"/>
<path opacity="0.5" d="M35.4768 116.32C35.4487 117.031 35.3792 117.756 35.3511 118.466C35.2374 120.514 35.2214 122.574 35.2054 124.634C35.1894 126.694 35.271 128.766 35.4355 130.808C35.5854 132.81 35.8328 134.823 36.0241 136.809C36.376 139.906 36.5887 143.005 37.0235 146.072C37.1546 147.1 37.271 148.085 37.4288 149.056C37.5666 149.708 37.8435 150.357 38.0642 150.979C38.1378 151.186 38.2796 151.322 38.4214 151.459C38.6193 151.622 38.9805 151.587 39.0875 151.363C39.153 151.153 39.2748 150.969 39.2841 150.733C39.3055 150.398 39.2855 150.078 39.2654 149.759C38.9202 146.286 38.6166 142.799 38.2714 139.326C38.04 136.701 37.9476 134.072 38.0359 131.426C38.1549 128.209 38.3301 125.019 38.6591 121.868C38.7889 120.654 38.8624 119.414 38.9507 118.216C39.1045 116.807 39.2021 115.372 39.356 113.963C39.5954 111.217 40.1424 108.549 40.7457 105.907C40.8233 105.599 40.9008 105.292 40.8955 105.013C41.0038 104.134 40.4313 103.311 39.5939 103.187C38.7419 103.023 37.9981 103.427 37.6383 104.255C37.4898 104.494 37.4537 104.787 37.3762 105.095C36.9374 106.885 36.2887 108.609 35.5276 110.28C34.8588 111.684 34.2167 113.033 33.5332 114.396C33.3995 114.677 33.2242 114.972 33.049 115.268C31.9976 117.041 31.1148 118.895 30.2882 120.776C30.0086 121.436 29.8414 122.149 29.7719 122.874C29.6542 123.989 29.8294 125.141 30.3364 126.175C30.4394 126.465 30.6106 126.685 30.8648 126.874C31.0066 127.011 31.2848 127.006 31.4359 126.905C31.5871 126.805 31.6821 126.678 31.6647 126.497C31.6593 126.219 31.5978 125.914 31.551 125.651C31.361 124.457 31.4078 123.274 31.8599 122.179C32.2732 121.239 32.7013 120.34 33.227 119.453C33.8449 118.3 34.5338 117.215 35.208 116.089C35.2347 116.033 35.3176 116.003 35.4006 115.974C35.4447 116.098 35.4889 116.223 35.4768 116.32ZM87.7727 133.573C88.1459 133.441 88.4777 133.323 88.8509 133.19C90.6607 132.501 92.5293 131.978 94.1947 131.014C94.2362 130.999 94.2776 130.985 94.3191 130.97C95.7116 130.289 97.0064 129.596 98.1982 128.613C98.7052 128.2 99.2536 127.772 99.7459 127.317C99.992 127.089 100.238 126.862 100.428 126.608C100.633 126.395 100.725 126.129 100.788 125.78C100.911 124.942 100.027 124.556 99.4609 124.803C99.2536 124.877 99.1024 124.977 98.9098 125.092C98.2637 125.508 97.6177 125.924 96.9983 126.284C96.2131 126.703 95.3838 126.997 94.6428 127.54C94.0943 127.968 93.475 128.328 92.8851 128.771C91.2933 129.943 89.5571 130.839 87.7352 131.625C86.3133 132.223 84.9356 132.946 83.4428 133.475C83.3184 133.52 83.2354 133.549 83.1258 133.635C82.6429 133.853 82.2015 134.056 81.76 134.259C81.4016 134.433 81.0431 134.607 80.726 134.766C80.3261 134.955 79.9676 135.129 79.5677 135.317C79.2921 135.462 78.9604 135.58 78.6848 135.724C77.6508 136.231 76.6583 136.723 75.639 137.272C74.371 137.908 73.1176 138.587 71.994 139.499C71.8576 139.641 71.6649 139.756 71.4723 139.871C71.4723 139.871 71.3894 139.9 71.3747 139.859C71.3185 139.832 71.2476 139.764 71.2329 139.722C71.2663 139.29 71.3412 138.843 71.3894 138.453C71.5164 137.101 71.7411 135.76 71.8267 134.423C71.9725 132.597 72.1036 130.729 72.1102 128.906C72.1142 126.944 72.1329 125.023 72.1102 123.117C71.9443 118.834 71.7784 114.551 71.9321 110.247C72.0445 107.406 72.1983 104.55 72.6303 101.689C72.7172 101.145 72.7895 100.559 72.9032 99.9583C72.9245 99.6238 73.0021 99.3162 72.9821 98.9965C73.0061 98.8012 72.9473 98.6353 72.8884 98.4695C72.8269 98.1645 72.4336 97.9772 72.0872 98.0535C71.8384 98.1418 71.6043 98.2715 71.4973 98.4962C71.322 98.7919 71.1883 99.0728 71.0692 99.3951C70.4887 101.048 70.1035 102.726 69.8721 104.442C69.5364 106.522 69.3398 108.599 69.2408 110.689C69.0349 114.45 68.9118 118.182 68.9279 121.912C68.952 123.164 68.9346 124.43 68.9173 125.697C68.8959 127.479 68.8478 129.317 68.7849 131.113C68.7288 133.981 68.6459 136.905 68.6044 139.815C68.5549 140.859 68.5469 141.889 68.5536 142.961C68.5175 143.254 68.5229 143.532 68.6259 143.822C68.7021 144.169 68.971 144.4 69.3201 144.463C69.6278 144.54 69.918 144.437 70.0933 144.142C70.2417 143.902 70.3755 143.622 70.4678 143.355C70.9172 142.122 71.6502 141.162 72.6642 140.335C72.925 140.149 73.1711 139.922 73.4734 139.721C75.1093 138.674 76.8041 137.792 78.5992 137.062C79.3871 136.782 80.175 136.502 80.9481 136.181C81.2798 136.064 81.6263 135.987 81.8871 135.802C82.5479 135.427 83.2529 135.177 83.9578 134.927C85.2433 134.471 86.5287 134.014 87.7727 133.573ZM84.2811 128.836C84.7935 130.148 85.6081 131.26 86.6836 132.185C87.3069 132.758 88.0226 133.064 88.8452 133.146C89.514 133.189 90.2096 133.175 90.8289 132.815C91.3921 132.429 91.982 131.986 92.4448 131.448C93.234 130.515 93.8961 129.486 94.4459 128.404C95.0638 127.251 95.4718 126.032 95.9212 124.799C96.6328 122.725 97.1906 120.613 97.5945 118.462C97.8219 117.261 98.0493 116.06 98.1791 114.847C98.2968 113.731 98.3583 112.589 98.3783 111.461C98.4064 107.856 98.0465 104.342 96.7008 100.945C96.6714 100.862 96.6272 100.737 96.5831 100.613C96.0828 99.203 95.307 97.9376 94.4214 96.7578C93.6215 95.6877 92.5755 94.845 91.2445 94.3836C89.9965 93.8927 88.7297 93.8753 87.4884 94.4558C86.647 94.8478 85.906 95.3909 85.2947 96.168C84.0989 97.6662 83.5478 99.4025 83.4167 101.27C83.2442 103.152 83.489 105.026 83.9973 106.853C84.103 107.283 84.1525 107.685 84.0214 108.105C83.9559 108.315 83.9318 108.51 83.8662 108.72C83.2576 111.084 82.8443 113.472 82.5434 115.913C82.3655 117.517 82.3415 119.159 82.415 120.814C82.5676 122.954 82.803 125.065 83.6631 127.094C83.8691 127.675 84.0751 128.255 84.2811 128.836ZM86.2124 101.912L86.2659 101.799C85.9168 100.289 86.2659 98.9048 87.0203 97.61C87.6115 96.5131 88.6308 95.9647 89.7972 95.8309C90.6172 95.7734 91.3863 95.9673 92.0364 96.4837C92.7427 97.0267 93.3808 97.6407 93.8824 98.3965C94.5552 99.3716 95.1451 100.376 95.501 101.51C95.5304 101.593 95.5598 101.676 95.5892 101.759C96.6407 104.328 97.0821 107.019 97.1624 109.745C97.2494 112.095 97.141 114.421 96.713 116.768C96.4255 118.457 96.0964 120.161 95.6135 121.827C95.1333 123.631 94.4993 125.397 93.6553 127.097C93.2005 128.052 92.6334 128.954 91.9953 129.787C91.6689 130.183 91.3278 130.537 90.9158 130.824C90.5988 130.983 90.2818 131.142 89.9915 131.245C89.4792 131.38 88.9763 131.278 88.5803 130.952C87.8593 130.367 87.3992 129.597 87.0634 128.782C86.6835 127.843 86.3718 126.833 86.1431 125.794C85.7766 124.103 85.6321 122.38 85.5852 120.67C85.5103 118.222 85.7283 115.81 86.1269 113.381C86.151 113.185 86.2165 112.975 86.2821 112.765C86.3088 112.709 86.3356 112.653 86.3891 112.541C86.5135 112.497 86.5991 112.606 86.67 112.674C87.0004 113.211 87.3723 113.733 87.7027 114.269C88.4785 115.534 89.3105 116.827 90.279 117.977C90.592 118.333 90.905 118.688 91.2448 118.988C91.4013 119.166 91.626 119.273 91.8507 119.38C92.0755 119.487 92.3537 119.482 92.6025 119.393C93.0172 119.246 93.3021 118.865 93.2379 118.421C93.1175 117.95 92.9703 117.535 92.6988 117.165C92.2386 116.394 91.7517 115.68 91.2916 114.91C90.4007 113.452 89.4683 112.008 88.6871 110.465C88.1534 109.487 87.8685 108.421 87.4738 107.44C87.3708 107.15 87.407 106.857 87.4845 106.549C87.6584 105.461 87.847 104.413 88.0209 103.324C88.069 102.934 88.0878 102.46 88.0797 102.043C88.0664 101.347 87.1848 101.1 86.7608 101.484C86.6097 101.584 86.417 101.699 86.2659 101.799L86.2124 101.912ZM123.034 79.3212C122.828 78.7407 122.607 78.1187 122.401 77.5382C122.242 77.2211 122.166 76.8747 121.98 76.6139C121.85 76.3798 121.664 76.1189 121.41 75.929C121.212 75.7658 120.905 75.6882 120.588 75.8474C120.297 75.9504 120.178 76.2728 120.184 76.551C120.174 76.7878 120.221 77.0513 120.309 77.3001C120.695 78.5173 120.887 79.8496 121.314 81.0522C121.388 81.2595 121.42 81.4815 121.452 81.7036C121.513 82.0086 121.631 82.3403 121.693 82.6453C121.813 83.1161 121.877 83.5602 121.998 84.0311C122.238 84.9728 122.272 85.988 122.403 87.0153C122.852 90.124 122.899 93.2822 122.57 96.4337C122.269 98.8749 121.8 101.236 121.135 103.573C120.524 105.797 119.688 107.915 118.781 109.964C117.859 111.972 116.754 113.858 115.635 115.702C115.014 116.716 114.337 117.704 113.519 118.554C113.287 118.823 113.014 119.107 112.727 119.349C112.576 119.449 112.383 119.564 112.176 119.638C111.859 119.797 111.548 119.58 111.528 119.261C111.511 119.08 111.52 118.843 111.544 118.648C111.744 116.71 111.958 114.813 112.157 112.875C112.311 111.466 112.408 110.031 112.562 108.622C112.626 107.619 112.732 106.601 112.755 105.613C112.872 103.05 112.99 100.487 113.066 97.9386C113.179 95.0975 113.264 92.3125 113.098 89.4767C113.078 89.157 113.043 88.7958 113.023 88.4761C112.974 88.0735 112.578 87.7471 112.173 87.6575C111.782 87.6094 111.382 87.798 111.222 88.1351C111.061 88.4722 110.927 88.7531 110.864 89.1022C110.712 89.8566 110.533 90.6672 110.436 91.4484C110.177 93.8749 109.959 96.2867 109.699 98.7131C109.687 98.8108 109.675 98.9084 109.649 98.9646C109.496 101.166 109.317 103.424 109.164 105.626C108.997 107.786 108.815 109.905 108.731 112.036C108.676 114.25 108.678 116.49 109.138 118.708C109.305 119.443 109.609 120.035 110.052 120.625C110.48 121.173 111.166 121.397 111.844 121.203C112.342 121.026 112.783 120.823 113.151 120.412C113.56 119.987 114.052 119.532 114.432 119.024C115.085 118.232 115.667 117.372 116.29 116.497C117.009 115.495 117.697 114.41 118.289 113.313C119.016 112.075 119.759 110.878 120.374 109.585C120.989 108.293 121.59 106.96 122.107 105.655C122.652 104.295 123.17 102.991 123.575 101.633C124.492 98.6929 125.2 95.6872 125.378 92.6361C125.467 90.7834 125.418 88.9335 125.132 87.0742C124.991 86.2836 124.878 85.4369 124.598 84.649C124.304 83.8197 124.009 82.9904 123.881 82.1022C123.861 81.7825 123.716 81.5069 123.628 81.2581C123.434 80.5799 123.172 79.9727 122.951 79.3507C122.993 79.3359 122.993 79.3359 123.034 79.3212ZM139.683 91.8084C138.174 92.9507 136.878 94.2978 135.824 95.9324C134.515 98.0311 133.835 100.327 133.8 102.86C133.813 104.21 134.13 105.498 134.669 106.754C135.438 108.395 136.86 109.245 138.585 109.239C139.657 109.232 140.681 108.962 141.618 108.443C142.732 107.768 143.832 107.051 144.775 106.156C145.279 105.603 145.854 105.119 146.344 104.525C146.887 103.819 147.444 103.154 147.987 102.448C149.005 101.106 150.038 99.806 151.041 98.4229C151.353 97.9855 151.594 97.4798 151.849 97.0157C151.929 96.8471 151.927 96.708 151.909 96.5274C151.921 96.4298 151.794 96.3348 151.723 96.2666C151.653 96.1984 151.513 96.2011 151.487 96.2572C151.309 96.4137 151.089 96.585 150.926 96.7829C150.098 97.8704 149.229 98.9727 148.401 100.06C147.003 101.91 145.407 103.597 143.655 105.106C142.531 106.018 141.349 106.765 139.951 107.167C139.397 107.317 138.882 107.313 138.323 107.185C137.918 107.095 137.649 106.864 137.434 106.52C137.277 106.342 137.218 106.176 137.145 105.969C136.809 105.154 136.598 104.295 136.608 103.404C136.555 102.069 136.696 100.759 137.202 99.552C137.973 97.6445 138.912 95.8173 140.217 94.2335C141.169 93.1019 142.181 92.1361 143.49 91.4846C143.615 91.4405 143.739 91.3963 143.849 91.3107C143.958 91.2251 144.039 91.0566 144.021 90.876C144.045 90.6807 143.859 90.4199 143.664 90.3958C143.427 90.3864 143.176 90.3356 142.939 90.3262C142.702 90.3169 142.439 90.3637 142.173 90.2714C141.445 90.0627 140.851 89.5732 140.503 88.8562C140.085 88.071 139.79 87.2417 139.703 86.3388C139.576 84.7965 139.769 83.2341 140.213 81.7226C140.645 80.3087 141.216 78.8921 141.956 77.5558C142.722 76.1633 143.728 74.9193 145.089 74.0164C145.939 73.3877 146.852 73.064 147.849 72.8499C148.821 72.6921 149.619 72.969 150.218 73.7368C150.546 74.134 150.832 74.546 150.994 75.0022C151.46 76.0509 151.676 77.1879 151.795 78.3128C151.813 78.4934 151.845 78.7154 151.919 78.9228C151.948 79.0057 152.075 79.1007 152.187 79.1542C152.3 79.2077 152.549 79.1194 152.602 79.007C152.656 78.8947 152.751 78.7676 152.763 78.6699C152.852 78.2646 152.915 77.9155 152.922 77.5396C152.918 76.6073 152.816 75.6629 152.507 74.7921C152.166 73.6993 151.591 72.7362 150.74 71.9176C149.804 70.9892 148.627 70.5666 147.333 70.6054C146.179 70.6415 145.086 70.9826 144.052 71.4896C142.108 72.4594 140.634 73.9629 139.47 75.6831C138.713 76.8389 138.095 77.9919 137.675 79.3082C136.913 81.633 136.624 83.9765 137.004 86.3629C137.288 88.0831 138.134 89.4167 139.491 90.4761C139.703 90.6808 139.943 90.8292 140.197 91.0192C140.268 91.0874 140.271 91.2265 140.315 91.3509C140.095 91.5221 139.917 91.6786 139.683 91.8084Z" fill="black"/>
<path opacity="0.5" d="M55.3452 163.861L56.6574 163.836L56.935 164.618L55.7616 165.035L56.9603 165.93C56.8554 167.436 55.0006 168.828 51.396 170.107L48.7968 171.47L48.822 172.782L49.2132 172.643C49.0895 174.777 50.4859 183.676 53.4025 199.342L56.3803 204.01L55.9891 204.149C55.4063 204.356 54.4221 203.237 53.0366 200.793L52.0398 196.743L51.901 196.351L51.5098 196.49L51.7874 197.273C51.0051 197.55 50.7065 197.95 50.8916 198.471L51.0304 198.862L54.0334 204.843L54.1722 205.234L53.3899 205.512L51.409 204.894L51.1566 205.423L50.7655 205.562C48.9223 203.678 47.7068 201.907 47.1189 200.25L47.6489 200.503L48.04 200.364L46.2862 197.903L47.3208 197.096L46.6268 195.14L45.8445 195.418L45.7057 195.027C46.488 194.749 46.7866 194.35 46.6016 193.828L46.4628 193.437L45.6805 193.714C44.9402 191.628 44.9612 190.447 45.7435 190.169L43.9392 185.084C44.2227 184.569 43.7726 181.646 42.589 176.315L39.9898 177.678L34.375 179.23L34.2362 178.838L36.0531 177.753L36.1919 178.144L36.4442 177.615L42.3114 175.533L41.895 174.359L35.9143 177.362L35.3844 177.11L34.9932 177.249L32.7852 178.473L31.3341 178.107L31.0313 176.012L30.5013 175.76C30.0387 174.456 31.3719 173.249 34.5011 172.139L55.3452 163.861ZM53.4147 165.867L53.5535 166.259L55.1181 165.703L54.9793 165.312L53.4147 165.867ZM46.7151 192.907L48.9864 201.79L49.7686 201.512L48.6835 199.695L48.4059 198.913L48.7718 197.462L48.3807 197.601L48.633 197.071L48.4942 196.68L47.9643 196.427L47.8255 196.036L48.0526 194.194L47.1062 192.768L46.7151 192.907ZM55.3652 163.699L56.5387 163.282L57.6238 165.099C58.4061 164.822 58.6584 164.292 58.3808 163.509L58.772 163.371L59.8318 163.875L60.2735 166.361L60.6646 166.222L60.4123 166.752L60.5511 167.143L61.081 167.396L61.2198 167.787L60.8287 167.925L61.3586 168.178L61.4974 168.569L65.6866 181.615L65.8254 182.007L66.2165 181.868L66.002 177.54L66.7843 177.262L66.6834 185.666L67.4657 185.388L67.4403 170.424L66.658 170.701L66.8978 176.341L66.1155 176.619L65.9767 176.228L66.494 168.998L66.8851 168.859L67.1627 169.641L70.0143 167.749C71.1934 167.762 71.8537 167.968 71.9952 168.367L72.2476 167.837L73.421 167.421L78.3167 176.253L78.7078 176.114C78.2942 174.948 77.9655 167.5 77.7219 153.771L78.1131 153.632L78.9206 154.666L79.3118 154.528L79.0342 153.745L79.4253 153.607C81.358 152.921 82.5399 152.942 82.9709 153.67L83.2484 154.452L82.8826 155.903L83.0214 156.294L83.8036 156.016L83.2232 153.14L84.0055 152.862L85.0654 153.367L85.2042 153.758L87.1996 187.634L86.165 188.441L85.8874 187.659L85.635 188.189L85.2439 188.328L84.7139 188.075C85.0841 189.119 84.878 189.779 84.0957 190.056C81.9443 190.613 80.7624 190.592 80.5502 189.993L80.9413 189.855C80.2179 188.643 79.3725 187.916 78.4052 187.672L73.787 179.622C73.3477 179.795 73.0785 184.001 72.9797 192.239L71.7179 194.889L71.3268 195.028L70.3805 193.602C72.0281 185.591 72.3098 179.766 71.2256 176.127C70.7803 177.062 70.4733 181.575 70.3047 189.665C69.9826 189.78 70.0163 191.529 70.4057 194.914L66.8854 196.164L65.9391 194.738L65.6867 195.268L65.2956 195.406C64.7948 193.995 64.0336 193.091 63.0118 192.694L62.4566 191.129L64.4376 191.747L61.2957 185.376L61.5481 184.846L61.0181 184.593L61.2705 184.063L60.8793 184.202L61.1317 183.672L59.1885 178.196L58.8857 176.102L58.4945 176.24L58.7469 175.711L55.1381 165.541L54.6082 165.288L54.4694 164.897L55.3652 163.699ZM78.4159 155.726C78.8169 169.072 79.2759 176.474 79.793 177.931L79.9318 178.322L80.3229 178.183L79.1982 155.449L78.4159 155.726ZM83.0735 171.042L83.5404 174.84L83.6792 175.231L84.0703 175.092L83.6034 171.294L83.4646 170.903L83.0735 171.042ZM84.0578 181.262L84.5246 185.06L84.8022 185.842L85.1934 185.703L84.5877 181.514L84.4489 181.123L84.0578 181.262ZM92.6678 151.576C92.884 152.38 93.5137 152.597 94.5567 152.227L95.8252 153.538L95.5498 154.076L95.941 153.937C96.0291 160.123 97.1534 166.918 99.3138 174.32L100.009 176.716L100.538 176.968L100.654 177.367L100.379 177.906L100.77 177.767L100.495 178.305L101.696 180.961L101.928 181.76C101.131 183.942 100.865 185.505 101.13 186.447L99.5655 187.002L97.4013 186.889L96.9819 183.955L94.9311 182.921L93.5624 176.801L91.4552 169.622L91.8901 168.146L91.427 166.549L90.9201 166.289L90.8043 165.889L91.5866 165.612L91.4708 165.212L90.9638 164.952L89.9143 156.957L89.5231 157.096L89.7985 156.557L89.0807 154.17L88.5738 153.909L88.458 153.51L92.6678 151.576ZM90.8406 160.151L91.6741 162.938L92.0652 162.799L91.2317 160.012L90.8406 160.151ZM91.6303 164.275L92.3251 166.671L92.7162 166.532L92.0215 164.136L91.6303 164.275ZM92.2813 168.008L92.999 170.395L93.3902 170.256L92.6724 167.869L92.2813 168.008ZM97.7642 183.678L98.3431 185.674L98.8708 184.606L98.5464 183.4L97.7642 183.678ZM107.209 145.613C108.084 145.889 110.37 145.372 114.067 144.06L114.183 144.459L111.445 145.431L111.561 145.83C114.828 144.671 117.146 144.729 118.514 146.005L118.745 146.804L116.79 147.498L116.905 147.897L119.759 147.325L119.875 147.724L117.528 148.557L117.644 148.956C118.426 148.679 118.894 148.806 119.049 149.338C114.401 150.988 110.853 154.155 108.406 158.84L108.521 159.24C114.047 158.799 119.107 160.38 123.701 163.982L123.817 164.381C124.063 168.094 122.513 172.167 119.164 176.602L116.91 177.842L117.026 178.242L117.808 177.964C118.028 178.68 115.913 180.312 111.462 182.858L111.231 182.06L113.187 181.366L113.094 180.958C111.422 181.551 109.587 181.175 107.589 179.829C106.211 179.644 105.223 178.708 104.624 177.021C104.57 176.867 104.52 176.704 104.476 176.529L105.418 175.314L106.823 175.697L107.605 175.419C114.559 171.656 117.523 167.962 116.496 164.337C112.858 163.867 110.54 163.808 109.543 164.162L109.659 164.561L105.261 164.36L105.768 164.621L106.023 165.411C101.922 164.172 99.6863 162.91 99.3166 161.625L100.434 155.063L101.926 152.772L102.158 153.571L107.209 145.613ZM105.619 158.068L105.734 158.467L111.11 151.715L114.008 149.806L113.776 149.007L112.994 149.285C109.412 152.283 106.954 155.211 105.619 158.068ZM113.472 173.337L113.863 173.198L114.414 172.122L114.023 172.261L113.472 173.337ZM120.513 170.839L119.527 173.39L119.918 173.252L120.904 170.7L120.513 170.839ZM116.722 175.707L116.861 176.098L117.252 175.959L118.469 174.206L116.722 175.707ZM113.253 180.021L113.369 180.42L114.934 179.865L116.774 178.772L116.635 178.38L116.244 178.519L113.253 180.021ZM141.167 133.407L142.479 133.382L142.756 134.164L141.583 134.581L142.782 135.477C142.677 136.982 140.822 138.374 137.217 139.653L134.618 141.016L134.643 142.328L135.034 142.189C134.911 144.323 136.307 153.222 139.224 168.888L142.202 173.556L141.81 173.695C141.228 173.902 140.243 172.783 138.858 170.339L137.861 166.289L137.722 165.898L137.331 166.036L137.609 166.819C136.826 167.096 136.528 167.496 136.713 168.017L136.852 168.409L139.855 174.389L139.994 174.78L139.211 175.058L137.23 174.44L136.978 174.97L136.587 175.108C134.744 173.224 133.528 171.453 132.94 169.797L133.47 170.049L133.861 169.91L132.107 167.45L133.142 166.642L132.448 164.686L131.666 164.964L131.527 164.573C132.309 164.295 132.608 163.896 132.423 163.374L132.284 162.983L131.502 163.261C130.762 161.175 130.783 159.993 131.565 159.715L129.76 154.63C130.044 154.115 129.594 151.192 128.41 145.861L125.811 147.224L120.196 148.776L120.058 148.385L121.874 147.3L122.013 147.691L122.266 147.161L128.133 145.079L127.716 143.905L121.736 146.908L121.206 146.656L120.815 146.795L118.606 148.019L117.155 147.653L116.853 145.558L116.323 145.306C115.86 144.002 117.193 142.795 120.322 141.685L141.167 133.407ZM139.236 135.414L139.375 135.805L140.939 135.25L140.801 134.858L139.236 135.414ZM132.536 162.453L134.808 171.336L135.59 171.058L134.505 169.241L134.227 168.459L134.593 167.008L134.202 167.147L134.454 166.617L134.316 166.226L133.786 165.973L133.647 165.582L133.874 163.74L132.928 162.314L132.536 162.453ZM160.356 127.401L162.708 128.043C162.977 130.555 162.375 132.021 160.9 132.441L150.848 136.526L151.08 137.325L153.061 136.777L155.349 135.706L155.873 136.012L156.272 135.897L158.951 134.687L159.758 134.478L159.874 134.878L151.12 139.046L152.203 144.361L152.603 144.245L162.93 139.622L163.422 139.913L163.538 140.313L162.731 140.521L162.87 140.912L165.775 140.555L165.89 140.955C165.84 142.613 162.516 145.122 155.92 148.482L152.034 150.016L152.541 150.277L152.418 155.916L152.027 156.055L151.008 152.453L150.608 152.569L151.776 158.268C159.213 154.455 164.581 152.084 167.878 151.156L169.976 151.007L170.23 151.798L169.432 152.029L169.924 152.321L170.271 153.519C169.868 154.767 168.419 155.747 165.926 156.459L166.042 156.859L169.245 155.955L169.453 156.762L152.201 165.889L151.801 166.005C150.445 166.175 149.672 165.992 149.482 165.455L149.457 165.386L149.11 164.188L148.689 159.571L148.174 159.287L148.964 159.033L149.52 161.038L149.928 160.945C149.619 159.587 149.702 158.849 150.179 158.731L149.655 158.425L148.552 154.439L147.745 154.647L147.902 156.768L148.208 156.244L148.607 156.129L149.279 158.533L148.872 158.625L148.532 157.45L148.133 157.566L148.365 158.365L147.965 158.481L147.734 157.682L146.633 150.638L146.234 150.754L146.462 148.548L145.947 148.265L145.831 147.866L144.339 140.96L144.854 141.244L145.253 141.128L145.022 140.329L144.066 138.44L143.447 134.723L143.099 133.525L143.507 133.432L144.022 133.715L144.305 133.2L144.713 133.108L145.22 133.368L145.503 132.853L146.709 132.529L160.356 127.401ZM146.842 151.445L147.629 154.248L148.028 154.132L147.249 151.352L146.842 151.445ZM159.929 147.37L160.32 147.232L160.413 147.639L153.579 150.867L153.056 150.56L152.949 150.184L156.435 148.766L156.55 149.165L159.929 147.37ZM168.092 124.527L169.656 123.971L171.107 124.337L173.706 122.975C178.231 121.369 183.329 122.496 188.999 126.356L192.343 129.573L192.09 130.103L193.175 131.92L193.869 133.876C196.248 140.579 192.576 147.607 182.854 154.96L179.082 156.739C178.848 156.08 178.187 155.873 177.101 156.121L177.656 157.685L176.483 158.102L175.65 155.755L175.12 155.503L175.372 154.973L175.233 154.582C173.288 154.063 172.182 153.428 171.915 152.676C168.506 140.588 166.756 131.52 166.666 125.473L167.057 125.334L167.587 125.586L168.092 124.527ZM167.915 128.993L169.984 141.03L170.123 141.421L170.514 141.283L168.584 129.637L168.306 128.854L167.915 128.993ZM175.145 129.51C175.33 130.032 174.901 130.478 173.858 130.848C174.502 135.973 175.663 141.727 177.34 148.109C178.859 147.57 182.308 144.878 187.687 140.033L187.548 139.642L186.766 139.92C188.095 137.047 188.352 134.461 187.535 132.16L187.119 130.987C186.101 128.118 183.544 127.117 179.447 127.984L175.145 129.51ZM182.968 126.734L183.106 127.126L184.949 127.353L184.81 126.962L183.359 126.596L182.968 126.734ZM188.431 130.961L189.706 135.794L190.488 135.516L190.071 134.343L189.907 132.639L188.822 130.823L188.431 130.961ZM192.28 133.119L192.545 140.071L192.683 140.462L193.074 140.323L192.948 133.762L192.671 132.98L192.28 133.119ZM189.34 137.245L189.113 139.087L189.504 138.948L189.731 137.106L189.34 137.245ZM189.491 145.118C190.072 144.808 190.707 143.702 191.396 141.8L191.258 141.409L189.491 145.118ZM181.328 150.657L181.466 151.049L183.031 150.493L184.709 149.017L184.57 148.626L184.179 148.765L181.328 150.657ZM178.337 152.159L179.145 153.194L179.927 152.916L180.432 151.856L180.293 151.465L179.902 151.604L178.867 152.411L178.337 152.159ZM174.868 156.033L175.259 155.894L175.397 156.285L174.893 157.345L174.502 157.484L174.363 157.092L174.868 156.033Z" fill="black"/>
<path opacity="0.5" d="M54.6587 226.071C53.2546 226.192 52.1191 226.106 51.2522 225.812C50.3832 225.513 49.7789 224.923 49.4394 224.043C49.2011 223.425 49.1537 222.806 49.2974 222.186C49.4465 221.563 49.7735 220.994 50.2782 220.479C50.7862 219.956 51.4393 219.541 52.2375 219.233C53.1067 218.898 53.9227 218.775 54.6854 218.864C55.4537 218.95 56.1111 219.205 56.6575 219.629C57.2095 220.05 57.6078 220.578 57.8524 221.212L56.2534 221.829C55.9834 221.129 55.5459 220.654 54.9407 220.404C54.3334 220.149 53.5979 220.187 52.7341 220.521C51.9305 220.831 51.3895 221.244 51.1111 221.759C50.8328 222.275 50.8053 222.822 51.0289 223.402C51.1596 223.741 51.3703 224.002 51.6607 224.185C51.9512 224.368 52.3387 224.485 52.8234 224.537C53.3081 224.589 53.917 224.58 54.6502 224.511C55.6677 224.413 56.525 224.422 57.2222 224.536C57.9249 224.648 58.5004 224.878 58.9488 225.226C59.4005 225.567 59.7455 226.046 59.9838 226.664C60.2306 227.303 60.2756 227.933 60.1189 228.552C59.9656 229.164 59.6252 229.723 59.0977 230.227C58.5703 230.732 57.8884 231.146 57.052 231.469C56.2921 231.762 55.5112 231.903 54.7094 231.892C53.911 231.874 53.1903 231.674 52.5476 231.294C51.9048 230.914 51.4369 230.344 51.1437 229.584L52.7345 228.971C52.937 229.495 53.2369 229.882 53.6343 230.131C54.0371 230.377 54.4899 230.501 54.9926 230.502C55.5008 230.5 56.0227 230.396 56.5585 230.19C57.373 229.875 57.939 229.462 58.2565 228.951C58.5741 228.439 58.6189 227.888 58.3912 227.297C58.2414 226.909 58.035 226.618 57.7719 226.424C57.5121 226.223 57.1399 226.097 56.6552 226.045C56.1684 225.988 55.5029 225.997 54.6587 226.071ZM66.6975 227.559C66.3898 227.804 66.0201 228.009 65.5882 228.176C64.9704 228.414 64.4013 228.42 63.8807 228.194C63.3655 227.966 62.9466 227.433 62.6239 226.597L60.4981 221.086L58.8827 221.71L58.4367 220.553L60.0521 219.93L59.2201 217.774L60.7535 217.182L61.5855 219.339L63.2419 218.7L63.6879 219.856L62.0315 220.495L64.1605 226.013C64.3229 226.434 64.52 226.685 64.7519 226.765C64.9817 226.84 65.2469 226.819 65.5476 226.703C65.6624 226.659 65.7849 226.602 65.9153 226.533C66.0435 226.458 66.1444 226.394 66.218 226.341L66.6975 227.559ZM68.566 216.457C68.6644 216.419 68.7927 216.385 68.9508 216.356C69.1069 216.321 69.2175 216.306 69.2827 216.313L69.8237 217.715C69.5717 217.762 69.3146 217.836 69.0522 217.937C68.5492 218.131 68.1715 218.406 67.9191 218.76C67.6721 219.113 67.5419 219.525 67.5284 219.995L69.9611 226.3L68.4277 226.892L65.0049 218.019L66.4973 217.444L66.9192 218.44C67.0054 217.979 67.1844 217.581 67.4562 217.243C67.726 216.901 68.0959 216.639 68.566 216.457ZM79.7189 217.92L73.7165 220.236C73.9459 220.781 74.2536 221.237 74.6398 221.603C75.0259 221.969 75.4637 222.209 75.953 222.321C76.4457 222.426 76.9545 222.378 77.4793 222.175C77.9932 221.977 78.3959 221.702 78.6875 221.351C78.9846 220.998 79.2058 220.57 79.3513 220.068L80.5563 220.432C80.4223 221.062 80.1442 221.643 79.7219 222.177C79.2976 222.705 78.6809 223.125 77.8718 223.437C77.0627 223.749 76.2787 223.841 75.5197 223.713C74.7606 223.585 74.0862 223.261 73.4963 222.742C72.9118 222.22 72.4604 221.546 72.1419 220.721L72.0059 220.368C71.6495 219.444 71.5188 218.568 71.6139 217.74C71.7069 216.907 71.9779 216.193 72.427 215.599C72.8816 215.003 73.4478 214.574 74.1256 214.312C74.9511 213.994 75.7062 213.916 76.3908 214.079C77.0787 214.235 77.6794 214.587 78.1928 215.136C78.7061 215.686 79.1273 216.387 79.4563 217.239L79.7189 217.92ZM77.6667 217.167C77.3551 216.489 76.9429 215.983 76.4302 215.647C75.9208 215.303 75.3108 215.268 74.6002 215.542C73.9879 215.779 73.5632 216.2 73.3262 216.806C73.0924 217.405 73.0808 218.132 73.2911 218.987L77.711 217.282L77.6667 217.167ZM89.0586 216.71C89.1788 217.021 89.3306 217.333 89.5139 217.646C89.6951 217.953 89.8792 218.202 90.0662 218.393L90.1168 218.525L88.5178 219.141C88.3426 218.964 88.1524 218.683 87.9471 218.297C87.7675 218.743 87.5008 219.151 87.147 219.52C86.7965 219.881 86.3643 220.161 85.8504 220.359C85.26 220.587 84.6909 220.674 84.1432 220.622C83.5987 220.562 83.1238 220.381 82.7184 220.079C82.3185 219.775 82.0246 219.379 81.8369 218.893C81.5944 218.264 81.55 217.669 81.7039 217.107C81.8631 216.543 82.1985 216.037 82.7101 215.588C83.2249 215.132 83.8896 214.747 84.7042 214.433L86.1966 213.857L85.9245 213.152C85.7157 212.611 85.391 212.249 84.9504 212.068C84.5131 211.878 83.9938 211.9 83.3925 212.132C83.0262 212.273 82.7235 212.465 82.4844 212.708C82.2431 212.946 82.0827 213.205 82.0031 213.487C81.9268 213.762 81.9371 214.025 82.0342 214.276L80.5008 214.868C80.3341 214.436 80.3204 213.961 80.4596 213.442C80.5987 212.924 80.8876 212.435 81.3263 211.977C81.763 211.514 82.3257 211.149 83.0145 210.883C83.6705 210.63 84.2877 210.521 84.8662 210.555C85.448 210.582 85.9648 210.766 86.4165 211.106C86.8661 211.442 87.2154 211.932 87.4642 212.577L89.0586 216.71ZM85.5657 218.962C85.9156 218.827 86.2176 218.641 86.4719 218.405C86.7295 218.161 86.9287 217.896 87.0693 217.609C87.2099 217.322 87.2923 217.039 87.3164 216.76L86.6078 214.923L85.3614 215.404C84.4867 215.741 83.8708 216.139 83.5137 216.597C83.1545 217.05 83.0793 217.547 83.2881 218.088C83.3999 218.378 83.5656 218.612 83.7854 218.791C84.0052 218.97 84.2672 219.079 84.5714 219.119C84.8734 219.153 85.2049 219.101 85.5657 218.962ZM95.9552 216.272C95.6475 216.517 95.2777 216.722 94.8459 216.889C94.2281 217.127 93.6589 217.133 93.1383 216.907C92.6232 216.678 92.2043 216.146 91.8816 215.31L89.7558 209.799L88.1404 210.422L87.6943 209.266L89.3098 208.643L88.4778 206.486L90.0112 205.895L90.8432 208.052L92.4996 207.412L92.9456 208.569L91.2892 209.208L93.4182 214.726C93.5806 215.147 93.7777 215.398 94.0096 215.478C94.2394 215.553 94.5046 215.532 94.8052 215.416C94.92 215.372 95.0426 215.315 95.1729 215.246C95.3012 215.171 95.4021 215.107 95.4756 215.054L95.9552 216.272ZM103.705 210.061C103.878 210.591 103.889 211.149 103.738 211.734C103.585 212.315 103.293 212.845 102.863 213.325C102.438 213.803 101.92 214.16 101.307 214.396C100.449 214.727 99.6462 214.811 98.8985 214.647C98.1541 214.476 97.5057 214.113 96.9532 213.56C96.3986 213.002 95.9632 212.313 95.6468 211.493L95.5139 211.148C95.1976 210.328 95.0584 209.528 95.0963 208.747C95.1321 207.961 95.3693 207.257 95.8078 206.636C96.2497 206.007 96.8998 205.527 97.7581 205.195C98.436 204.934 99.0911 204.841 99.7234 204.918C100.361 204.992 100.925 205.217 101.416 205.593C101.904 205.964 102.279 206.447 102.541 207.043L101.089 207.603C100.921 207.247 100.688 206.954 100.392 206.723C100.093 206.486 99.7571 206.34 99.3835 206.283C99.0098 206.226 98.6262 206.274 98.2326 206.425C97.6477 206.651 97.2339 206.987 96.9912 207.432C96.7464 207.872 96.6402 208.362 96.6727 208.902C96.7031 209.437 96.828 209.988 97.0474 210.557L97.1802 210.901C97.5303 211.809 98.0093 212.497 98.6172 212.966C99.2307 213.432 99.9692 213.499 100.833 213.166C101.188 213.029 101.491 212.827 101.74 212.562C101.992 212.288 102.166 211.983 102.262 211.644C102.355 211.3 102.353 210.959 102.253 210.621L103.705 210.061ZM107.147 201.573C109.044 200.841 110.407 201.55 111.236 203.698L113.479 209.512L111.945 210.104L109.696 204.273C109.435 203.595 109.097 203.16 108.684 202.968C108.276 202.774 107.777 202.791 107.186 203.018C106.716 203.2 106.342 203.492 106.064 203.894C105.792 204.294 105.629 204.753 105.577 205.269L108.026 211.616L106.492 212.207L101.633 199.612L103.167 199.02L105.008 203.793C105.181 203.28 105.448 202.835 105.811 202.456C106.171 202.072 106.617 201.778 107.147 201.573ZM117.768 202.657C117.437 201.799 117.303 200.965 117.368 200.155C117.432 199.345 117.693 198.629 118.15 198.007C118.61 197.377 119.245 196.906 120.054 196.594C120.874 196.278 121.666 196.198 122.43 196.356C123.192 196.508 123.869 196.862 124.461 197.419C125.052 197.976 125.514 198.683 125.845 199.541L125.917 199.73C126.249 200.588 126.382 201.422 126.318 202.232C126.251 203.037 125.988 203.754 125.527 204.383C125.07 205.006 124.434 205.474 123.62 205.788C122.805 206.102 122.017 206.184 121.255 206.032C120.496 205.872 119.819 205.518 119.224 204.969C118.633 204.412 118.172 203.704 117.84 202.846L117.768 202.657ZM119.374 202.254C119.606 202.856 119.911 203.369 120.288 203.795C120.672 204.219 121.109 204.505 121.6 204.655C122.089 204.799 122.604 204.767 123.145 204.558C123.681 204.351 124.082 204.031 124.347 203.595C124.61 203.155 124.739 202.65 124.733 202.08C124.732 201.509 124.616 200.923 124.384 200.322L124.311 200.133C124.079 199.532 123.772 199.019 123.388 198.595C123.005 198.172 122.568 197.885 122.077 197.735C121.586 197.586 121.07 197.615 120.528 197.824C119.993 198.031 119.593 198.354 119.33 198.795C119.072 199.234 118.943 199.739 118.944 200.31C118.95 200.879 119.069 201.464 119.301 202.066L119.374 202.254ZM133.04 191.773L136.463 200.645L135.004 201.208L134.641 200.34C134.318 201.262 133.585 201.944 132.443 202.384C131.53 202.737 130.713 202.744 129.993 202.406C129.272 202.069 128.693 201.332 128.254 200.195L126.046 194.471L127.579 193.879L129.794 199.619C130.078 200.357 130.43 200.821 130.849 201.012C131.271 201.194 131.72 201.194 132.195 201.01C133.343 200.567 133.946 199.842 134.003 198.834L131.507 192.364L133.04 191.773ZM142.531 198.304C142.224 198.548 141.854 198.754 141.422 198.92C140.804 199.159 140.235 199.165 139.714 198.938C139.199 198.71 138.78 198.178 138.458 197.341L136.332 191.831L134.717 192.454L134.27 191.298L135.886 190.675L135.054 188.518L136.587 187.927L137.419 190.083L139.076 189.444L139.522 190.6L137.865 191.239L139.994 196.758C140.157 197.179 140.354 197.43 140.586 197.51C140.815 197.584 141.081 197.564 141.381 197.448C141.496 197.403 141.619 197.347 141.749 197.277C141.877 197.203 141.978 197.139 142.052 197.085L142.531 198.304ZM146.287 191.655C145.956 190.797 145.823 189.963 145.887 189.153C145.952 188.343 146.212 187.627 146.669 187.005C147.13 186.375 147.765 185.904 148.574 185.592C149.394 185.275 150.186 185.196 150.95 185.353C151.712 185.505 152.389 185.86 152.98 186.416C153.572 186.973 154.033 187.681 154.364 188.539L154.437 188.728C154.768 189.586 154.902 190.42 154.837 191.23C154.771 192.034 154.507 192.751 154.047 193.381C153.59 194.003 152.954 194.472 152.139 194.786C151.325 195.1 150.537 195.181 149.775 195.029C149.016 194.87 148.339 194.515 147.744 193.966C147.153 193.409 146.691 192.702 146.36 191.844L146.287 191.655ZM147.893 191.252C148.125 191.853 148.43 192.367 148.808 192.793C149.191 193.216 149.629 193.503 150.12 193.653C150.609 193.797 151.124 193.765 151.665 193.556C152.201 193.349 152.601 193.028 152.867 192.593C153.13 192.152 153.259 191.647 153.253 191.078C153.252 190.507 153.136 189.92 152.904 189.319L152.831 189.13C152.599 188.529 152.291 188.017 151.908 187.593C151.525 187.169 151.088 186.883 150.597 186.733C150.105 186.583 149.589 186.613 149.048 186.822C148.512 187.028 148.113 187.352 147.85 187.793C147.592 188.231 147.463 188.736 147.464 189.308C147.47 189.877 147.589 190.462 147.821 191.063L147.893 191.252ZM157.405 179.377C156.919 179.565 156.598 179.855 156.441 180.248C156.283 180.636 156.307 181.098 156.514 181.633L156.878 182.576L158.764 181.849L159.21 183.005L157.324 183.733L160.301 191.449L158.767 192.04L155.791 184.324L154.397 184.862L153.951 183.706L155.345 183.168L154.981 182.225C154.616 181.279 154.592 180.453 154.91 179.746C155.231 179.032 155.851 178.498 156.769 178.144C157.103 178.015 157.467 177.925 157.861 177.873L158.251 179.126C157.988 179.178 157.706 179.261 157.405 179.377ZM169.655 183.365C168.516 183.554 167.599 183.556 166.906 183.371C166.219 183.184 165.741 182.743 165.473 182.049C165.292 181.579 165.262 181.094 165.383 180.595C165.505 180.096 165.769 179.633 166.176 179.206C166.588 178.777 167.117 178.438 167.762 178.189C168.45 177.924 169.099 177.815 169.708 177.862C170.317 177.91 170.836 178.093 171.267 178.41C171.7 178.72 172.016 179.132 172.214 179.646L170.681 180.238C170.584 179.986 170.416 179.771 170.178 179.593C169.94 179.415 169.65 179.307 169.309 179.269C168.971 179.224 168.613 179.274 168.236 179.419C167.837 179.573 167.531 179.764 167.317 179.991C167.101 180.212 166.969 180.448 166.921 180.699C166.877 180.942 166.899 181.179 166.988 181.408C167.078 181.643 167.209 181.819 167.379 181.935C167.553 182.044 167.809 182.105 168.147 182.119C168.491 182.131 168.962 182.091 169.561 181.998C170.37 181.881 171.051 181.847 171.604 181.898C172.157 181.948 172.61 182.097 172.963 182.344C173.321 182.589 173.592 182.949 173.776 183.424C173.974 183.938 174.008 184.45 173.877 184.958C173.745 185.462 173.462 185.925 173.03 186.35C172.595 186.769 172.035 187.11 171.352 187.374C170.598 187.665 169.893 187.783 169.237 187.728C168.585 187.666 168.032 187.468 167.576 187.135C167.121 186.802 166.797 186.384 166.603 185.881L168.136 185.289C168.31 185.674 168.549 185.952 168.854 186.124C169.156 186.29 169.482 186.368 169.83 186.359C170.184 186.349 170.533 186.277 170.878 186.144C171.277 185.99 171.597 185.803 171.839 185.584C172.085 185.358 172.244 185.12 172.318 184.872C172.39 184.618 172.378 184.369 172.283 184.123C172.188 183.877 172.054 183.683 171.881 183.543C171.707 183.403 171.443 183.313 171.089 183.274C170.735 183.235 170.257 183.265 169.655 183.365ZM180.465 183.67C180.157 183.914 179.787 184.12 179.355 184.286C178.738 184.525 178.168 184.531 177.648 184.304C177.133 184.076 176.714 183.544 176.391 182.707L174.265 177.197L172.65 177.82L172.204 176.664L173.819 176.041L172.987 173.884L174.521 173.293L175.353 175.449L177.009 174.81L177.455 175.966L175.799 176.605L177.928 182.124C178.09 182.545 178.287 182.795 178.519 182.876C178.749 182.95 179.014 182.93 179.315 182.814C179.429 182.769 179.552 182.713 179.682 182.643C179.811 182.569 179.911 182.505 179.985 182.451L180.465 183.67ZM182.333 172.568C182.432 172.53 182.56 172.496 182.718 172.466C182.874 172.431 182.985 172.417 183.05 172.423L183.591 173.825C183.339 173.872 183.082 173.946 182.819 174.048C182.316 174.242 181.939 174.516 181.686 174.871C181.439 175.224 181.309 175.635 181.296 176.105L183.728 182.411L182.195 183.002L178.772 174.13L180.264 173.554L180.686 174.55C180.772 174.09 180.951 173.691 181.223 173.354C181.493 173.011 181.863 172.749 182.333 172.568ZM193.486 174.031L187.484 176.346C187.713 176.892 188.021 177.348 188.407 177.714C188.793 178.08 189.231 178.319 189.72 178.432C190.213 178.537 190.722 178.488 191.246 178.286C191.76 178.088 192.163 177.813 192.455 177.462C192.752 177.109 192.973 176.681 193.118 176.179L194.323 176.543C194.189 177.173 193.911 177.754 193.489 178.287C193.065 178.815 192.448 179.235 191.639 179.548C190.83 179.86 190.046 179.952 189.287 179.824C188.528 179.696 187.853 179.372 187.263 178.852C186.679 178.33 186.227 177.657 185.909 176.831L185.773 176.479C185.417 175.555 185.286 174.679 185.381 173.851C185.474 173.017 185.745 172.304 186.194 171.709C186.649 171.113 187.215 170.685 187.893 170.423C188.718 170.105 189.473 170.027 190.158 170.19C190.846 170.345 191.446 170.697 191.96 171.247C192.473 171.796 192.894 172.497 193.223 173.35L193.486 174.031ZM191.434 173.277C191.122 172.6 190.71 172.093 190.197 171.757C189.688 171.414 189.078 171.379 188.367 171.653C187.755 171.889 187.33 172.311 187.093 172.917C186.86 173.516 186.848 174.243 187.058 175.097L191.478 173.392L191.434 173.277ZM202.408 170.589L196.405 172.904C196.635 173.45 196.942 173.906 197.328 174.272C197.715 174.638 198.152 174.877 198.642 174.99C199.134 175.095 199.643 175.047 200.168 174.844C200.682 174.646 201.085 174.371 201.376 174.02C201.673 173.667 201.895 173.239 202.04 172.737L203.245 173.101C203.111 173.731 202.833 174.312 202.411 174.846C201.986 175.374 201.37 175.794 200.561 176.106C199.751 176.418 198.967 176.51 198.208 176.382C197.449 176.254 196.775 175.93 196.185 175.41C195.601 174.888 195.149 174.215 194.831 173.389L194.695 173.037C194.338 172.113 194.208 171.237 194.303 170.409C194.396 169.575 194.667 168.862 195.116 168.268C195.57 167.672 196.136 167.243 196.814 166.981C197.64 166.663 198.395 166.585 199.079 166.748C199.767 166.903 200.368 167.256 200.881 167.805C201.395 168.354 201.816 169.055 202.145 169.908L202.408 170.589ZM200.355 169.835C200.044 169.158 199.632 168.651 199.119 168.315C198.61 167.972 198 167.937 197.289 168.211C196.677 168.447 196.252 168.869 196.015 169.475C195.781 170.074 195.769 170.801 195.98 171.655L200.4 169.95L200.355 169.835ZM207.359 168.82C206.219 169.008 205.303 169.01 204.61 168.825C203.922 168.638 203.445 168.198 203.177 167.504C202.995 167.033 202.966 166.549 203.087 166.05C203.208 165.551 203.473 165.088 203.879 164.661C204.292 164.232 204.82 163.893 205.465 163.644C206.154 163.378 206.803 163.269 207.412 163.317C208.021 163.365 208.54 163.547 208.97 163.865C209.404 164.175 209.72 164.587 209.918 165.101L208.385 165.692C208.288 165.441 208.12 165.226 207.882 165.048C207.643 164.87 207.354 164.762 207.012 164.724C206.675 164.678 206.317 164.728 205.94 164.874C205.541 165.028 205.234 165.218 205.02 165.445C204.804 165.667 204.673 165.903 204.625 166.154C204.581 166.397 204.603 166.633 204.691 166.863C204.782 167.098 204.913 167.274 205.083 167.39C205.257 167.499 205.513 167.56 205.851 167.574C206.195 167.586 206.666 167.545 207.264 167.453C208.073 167.335 208.754 167.302 209.308 167.352C209.861 167.402 210.314 167.551 210.667 167.798C211.025 168.043 211.296 168.403 211.479 168.879C211.677 169.393 211.711 169.904 211.581 170.413C211.449 170.916 211.166 171.38 210.733 171.804C210.298 172.223 209.739 172.565 209.056 172.828C208.301 173.119 207.596 173.238 206.941 173.183C206.289 173.12 205.735 172.922 205.28 172.589C204.825 172.256 204.5 171.838 204.306 171.335L205.84 170.744C206.014 171.129 206.253 171.407 206.558 171.578C206.86 171.744 207.186 171.823 207.534 171.814C207.888 171.803 208.237 171.731 208.581 171.598C208.98 171.444 209.301 171.258 209.543 171.039C209.788 170.812 209.948 170.575 210.022 170.327C210.093 170.073 210.082 169.823 209.987 169.577C209.892 169.331 209.758 169.138 209.584 168.998C209.411 168.857 209.147 168.767 208.793 168.728C208.439 168.689 207.961 168.72 207.359 168.82Z" fill="black"/>
<defs>
<linearGradient id="paint0_linear" x1="38.4354" y1="278.243" x2="701.481" y2="274.702" gradientUnits="userSpaceOnUse">
<stop stop-color="#1A7F54"/>
<stop offset="1" stop-color="#7ADBAE"/>
</linearGradient>
<linearGradient id="paint1_linear" x1="20.9907" y1="304.644" x2="681.712" y2="249.062" gradientUnits="userSpaceOnUse">
<stop stop-color="#1A7F72"/>
<stop offset="1" stop-color="#7ADBAE"/>
</linearGradient>
<clipPath id="clip0">
<rect width="500" height="663.434" fill="white" transform="matrix(0.00534047 0.999986 0.999986 -0.00534047 37.0593 28.3335)"/>
</clipPath>
<clipPath id="clip1">
<rect width="500" height="663.434" fill="white" transform="matrix(0.083827 0.99648 0.99648 -0.083827 0 55.6138)"/>
</clipPath>
</defs>
</svg>
