<svg width="29" height="32" viewBox="0 0 29 32" fill="none" xmlns="http://www.w3.org/2000/svg">
<g filter="url(#filter0_d)">
<path d="M26.0391 14.293L8.04297 3.29491C7.73985 3.10955 7.39281 3.0083 7.03757 3.00158C6.68232 2.99486 6.3317 3.0829 6.02178 3.25666C5.71186 3.43042 5.45383 3.68361 5.27425 3.99019C5.09466 4.29677 5 4.64566 5 5.00097V26.999C5.00029 27.3542 5.09513 27.7029 5.27479 28.0093C5.45445 28.3157 5.71244 28.5688 6.02226 28.7425C6.33208 28.9162 6.68255 29.0043 7.03768 28.9977C7.39281 28.9911 7.73979 28.8901 8.04297 28.7051L26.0391 17.707C26.3314 17.5283 26.5729 17.2774 26.7405 16.9785C26.9081 16.6796 26.9961 16.3427 26.9961 16C26.9961 15.6573 26.9081 15.3204 26.7405 15.0215C26.5729 14.7226 26.3314 14.4717 26.0391 14.293Z" fill="white"/>
</g>
<defs>
<filter id="filter0_d" x="3" y="2.00122" width="25.9961" height="29.9968" filterUnits="userSpaceOnUse" color-interpolation-filters="sRGB">
<feFlood flood-opacity="0" result="BackgroundImageFix"/>
<feColorMatrix in="SourceAlpha" type="matrix" values="0 0 0 0 0 0 0 0 0 0 0 0 0 0 0 0 0 0 127 0" result="hardAlpha"/>
<feOffset dy="1"/>
<feGaussianBlur stdDeviation="1"/>
<feColorMatrix type="matrix" values="0 0 0 0 0 0 0 0 0 0 0 0 0 0 0 0 0 0 0.25 0"/>
<feBlend mode="normal" in2="BackgroundImageFix" result="effect1_dropShadow"/>
<feBlend mode="normal" in="SourceGraphic" in2="effect1_dropShadow" result="shape"/>
</filter>
</defs>
</svg>
